<svg version="1.1" xmlns="http://www.w3.org/2000/svg" viewBox="0 0 913.963513351362 466.56100002519815" width="913.963513351362" height="466.56100002519815">
  <!-- svg-source:excalidraw -->
  
  <defs>
    <style class="style-fonts">
      @font-face {
        font-family: "Virgil";
        src: url("https://excalidraw.com/Virgil.woff2");
      }
      @font-face {
        font-family: "Cascadia";
        src: url("https://excalidraw.com/Cascadia.woff2");
      }
    </style>
  </defs>
  <g stroke-linecap="round"><g transform="translate(513.8534644674291 75.57038905155423) rotate(0 -0.3698195707402192 26.917580891296893)"><path d="M0.69 0.44 C0.73 9.44, -0.16 45.5, -0.32 54.21 M-0.4 -0.37 C-0.51 8.26, -1.31 43.46, -1.43 52.44" stroke="#000000" stroke-width="2" fill="none"></path></g></g><g stroke-linecap="round" transform="translate(483.4099056618452 128.0728158105885) rotate(0 31.11740864006333 31.117408640062422)"><path d="M16.63 4.34 C22.37 1.15, 32.62 -0.08, 39.06 1.26 C45.5 2.6, 51.51 7.23, 55.26 12.39 C59.01 17.56, 61.77 25.69, 61.57 32.24 C61.38 38.8, 58.57 46.87, 54.08 51.72 C49.6 56.57, 41.2 60.4, 34.68 61.35 C28.16 62.29, 20.6 60.83, 14.95 57.37 C9.29 53.92, 2.67 46.98, 0.73 40.62 C-1.21 34.25, 0.03 25.6, 3.31 19.2 C6.6 12.8, 16.96 5.02, 20.42 2.24 C23.89 -0.54, 23.82 2.08, 24.1 2.53 M35.02 0.89 C41.6 0.82, 50.16 3.86, 54.76 8.46 C59.37 13.06, 62.41 21.72, 62.64 28.49 C62.88 35.27, 60.36 43.87, 56.19 49.12 C52.03 54.37, 43.96 58.53, 37.68 59.98 C31.4 61.44, 24.53 60.71, 18.52 57.83 C12.5 54.94, 4.63 48.74, 1.59 42.67 C-1.44 36.61, -1.51 27.85, 0.3 21.44 C2.12 15.03, 6.74 7.68, 12.47 4.2 C18.2 0.73, 30.93 1.13, 34.66 0.59 C38.39 0.06, 35.04 0.59, 34.85 1" stroke="#000000" stroke-width="1" fill="none"></path></g><g stroke-opacity="0.8" fill-opacity="0.8" stroke-linecap="round" transform="translate(480.4291868642322 145.39460628817687) rotate(0 34.412314334248094 14.565169733174116)"><path d="M-1.46 -0.32 L70.13 1.32 L69.66 29.06 L1 28.83" stroke="none" stroke-width="0" fill="#fff"></path><path d="M-1.87 -1.49 C26.68 -0.7, 54.07 1.89, 69.71 -1.54 M0.28 -0.7 C19.99 -0.25, 41.1 0.63, 68.23 0.5 M69.33 1.1 C70.83 12.7, 69.07 22.54, 68.78 30.39 M68.2 0.33 C68.77 10.17, 68.86 19.86, 67.97 29.73 M67.68 27.47 C52.75 26.96, 40.26 29.15, 0.93 29.44 M68.44 29.14 C49.19 28.01, 31.54 28.3, -0.39 28.25 M-0.93 28.07 C0.44 22.15, -1.03 15.18, 0.63 1.62 M0.05 28.92 C0.08 21.45, -0.85 14.57, -0.63 -0.84" stroke="transparent" stroke-width="1" fill="none"></path></g><g transform="translate(467.5238898629177 148.90039456897284) rotate(0 48 12)"><text x="48" y="19" font-family="Cascadia, Segoe UI Emoji" font-size="20px" fill="#000000" text-anchor="middle" style="white-space: pre;" direction="ltr">products</text></g><g stroke-linecap="round" transform="translate(128.95512420462182 131.59405060554855) rotate(0 31.11740864006333 31.11740864006424)"><path d="M24.62 0.02 C30.52 -2.03, 39.46 -0.41, 45.22 2.81 C50.98 6.02, 56.69 13.07, 59.18 19.29 C61.67 25.51, 62.13 33.67, 60.16 40.14 C58.19 46.61, 52.8 54.56, 47.35 58.11 C41.9 61.65, 33.9 62.23, 27.48 61.4 C21.06 60.56, 13.34 57.84, 8.82 53.1 C4.3 48.36, 0.75 39.64, 0.37 32.94 C0 26.24, 1.81 18.22, 6.55 12.89 C11.3 7.57, 24.66 2.99, 28.86 0.98 C33.06 -1.03, 31.85 0.34, 31.75 0.83 M38.42 1.6 C44.46 2.64, 52.49 8.02, 56.41 13.23 C60.33 18.45, 62.72 26.08, 61.93 32.9 C61.15 39.72, 56.64 49.47, 51.7 54.15 C46.77 58.83, 38.96 60.72, 32.32 60.97 C25.69 61.22, 17.31 59.49, 11.88 55.64 C6.46 51.79, 1.45 44.1, -0.23 37.87 C-1.91 31.64, -1.34 23.97, 1.79 18.24 C4.93 12.52, 12.27 6.45, 18.57 3.53 C24.87 0.62, 36.18 1.29, 39.58 0.76 C42.98 0.23, 39.25 -0.21, 38.98 0.35" stroke="#000000" stroke-width="1" fill="none"></path></g><g stroke-opacity="0.8" fill-opacity="0.8" stroke-linecap="round" transform="translate(123.7222217533681 148.91584108312964) rotate(0 34.514475242247954 14.565169733174116)"><path d="M1.32 0.84 L68.96 1 L68.72 30.33 L1.79 28.91" stroke="none" stroke-width="0" fill="#fff"></path><path d="M-0.9 1.99 C15.93 0.66, 26.96 -0.38, 67.8 -1.2 M-0.67 0.86 C22.83 -0.51, 45.73 0.89, 69.36 0.25 M70.65 0.15 C69.59 9.43, 70.44 20.03, 70.01 30.95 M68.91 -0.11 C68.38 6.07, 69.73 12.98, 68.26 28.3 M67.43 29.72 C52.87 29.54, 35.84 28.15, -0.27 27.33 M68.53 29.94 C50.76 28.33, 32.04 28.32, -0.49 28.38 M0.58 27.95 C1.32 22.37, 1.78 13.41, 1.43 -1.56 M-0.31 28.49 C0.25 19.62, -0.78 10.65, -0.16 0.65" stroke="transparent" stroke-width="1" fill="none"></path></g><g transform="translate(113.06910840569617 152.1347985848115) rotate(0 53.5 12)"><text x="53.5" y="19" font-family="Cascadia, Segoe UI Emoji" font-size="20px" fill="#000000" text-anchor="middle" style="white-space: pre;" direction="ltr">customers</text></g><g stroke-linecap="round" transform="translate(188.87395988251956 265.27177829349966) rotate(0 31.11740864006333 31.11740864006424)"><path d="M37.33 0.16 C43.77 1.06, 52.02 6.26, 56.14 11.55 C60.26 16.85, 62.28 25.09, 62.07 31.9 C61.86 38.71, 59.45 47.33, 54.86 52.42 C50.26 57.52, 41.11 61.61, 34.49 62.48 C27.86 63.35, 20.59 61.28, 15.12 57.64 C9.65 54, 3.69 46.9, 1.66 40.64 C-0.37 34.38, 0.29 26.26, 2.95 20.08 C5.62 13.89, 10.23 6.14, 17.65 3.54 C25.06 0.95, 41.22 3.08, 47.45 4.49 C53.69 5.89, 55.26 11.37, 55.04 11.97 M21.43 1.32 C27.07 -1.16, 35.42 -1.31, 41.77 1.02 C48.13 3.35, 56.45 9.38, 59.55 15.29 C62.65 21.2, 62.07 29.94, 60.37 36.47 C58.66 43, 54.58 50.38, 49.32 54.47 C44.06 58.56, 35.24 60.99, 28.79 61.01 C22.35 61.03, 15.28 58.84, 10.65 54.6 C6.02 50.36, 2.02 42.27, 0.98 35.56 C-0.05 28.85, 1.23 20.1, 4.44 14.32 C7.66 8.55, 17.37 3.1, 20.26 0.91 C23.16 -1.28, 21.56 0.41, 21.82 1.2" stroke="#000000" stroke-width="1" fill="none"></path></g><g stroke-opacity="0.8" fill-opacity="0.8" stroke-linecap="round" transform="translate(164.1306458420604 282.59356877108075) rotate(0 60.108104535101575 14.565169733174116)"><path d="M1 -0.3 L121.41 1.79 L119.99 29.1 L-0.52 27.26" stroke="none" stroke-width="0" fill="#fff"></path><path d="M0.88 -1.54 C30.5 -2.24, 60.1 -0.46, 118.82 -0.26 M-0.6 0.5 C28.84 0.08, 56.33 0, 120.76 0.95 M120.17 1.26 C121.31 12.09, 122.06 20.97, 120.88 28.73 M119.36 0.6 C119.3 7.6, 119.36 16.18, 119.39 28.38 M121.14 29.44 C93.32 29.21, 65.55 28.71, 0.02 27.96 M119.82 28.25 C89.77 28.39, 59.38 28.42, -0.53 29.28 M0.63 30.75 C-0.76 20.98, -1.39 10.06, -0.42 0.57 M-0.63 28.29 C-0.54 21.13, 0.84 14.11, 0.42 -0.03" stroke="transparent" stroke-width="1" fill="none"></path></g><g transform="translate(156.97403583890627 283.6928954304167) rotate(0 65.5 12)"><text x="65.5" y="19" font-family="Cascadia, Segoe UI Emoji" font-size="20px" fill="#000000" text-anchor="middle" style="white-space: pre;" direction="ltr">:customerId</text></g><g stroke-linecap="round" transform="translate(20.80570793138031 267.1483322043932) rotate(0 31.11740864006333 31.11740864006424)"><path d="M21.04 1.32 C26.95 -0.87, 36.02 0.75, 42.34 3.22 C48.65 5.69, 55.64 10.23, 58.92 16.13 C62.2 22.03, 63.42 31.98, 62 38.63 C60.58 45.28, 55.74 52.02, 50.41 56.04 C45.09 60.06, 36.59 62.95, 30.04 62.75 C23.48 62.56, 16.02 59.45, 11.07 54.89 C6.12 50.33, 1.38 42.04, 0.34 35.4 C-0.7 28.76, 0.71 20.75, 4.84 15.05 C8.96 9.34, 21.17 3.66, 25.11 1.19 C29.05 -1.29, 28.38 -0.18, 28.45 0.21 M27.9 0.96 C34.01 0.17, 42.91 1.26, 48.28 4.93 C53.66 8.6, 58.56 16.48, 60.13 22.97 C61.71 29.46, 60.7 37.67, 57.73 43.86 C54.77 50.04, 48.18 57.12, 42.35 60.09 C36.51 63.05, 28.9 63.68, 22.74 61.66 C16.59 59.64, 9.2 53.86, 5.41 47.96 C1.62 42.07, -0.62 32.83, -0.01 26.27 C0.61 19.7, 4.38 13.07, 9.1 8.58 C13.82 4.08, 24.76 0.68, 28.32 -0.69 C31.87 -2.06, 30.37 -0.05, 30.45 0.37" stroke="#000000" stroke-width="1" fill="none"></path></g><g stroke-opacity="0.8" fill-opacity="0.8" stroke-linecap="round" transform="translate(15.505472154398376 284.4701226819743) rotate(0 36.95472784016056 14.565169733174116)"><path d="M1.79 -0.23 L73.88 -0.52 L72.04 28.02 L1.87 30.97" stroke="none" stroke-width="0" fill="#fff"></path><path d="M-1.22 -1.2 C26 -1.33, 50.62 -1.28, 75.63 0.43 M0.33 0.25 C18.01 -0.04, 36.47 0.22, 73.98 0.2 M74.89 1.82 C72.85 9.33, 73.69 17.09, 73.69 27.65 M73.14 -0.83 C73.51 5.41, 73.34 11.67, 74.2 29.42 M73.64 27.33 C47.54 28.98, 21.54 27.96, 1.62 28.72 M73.42 28.38 C54.17 28.3, 35.51 29.12, -0.59 29.71 M1.43 27.57 C-0.14 19.06, 0.34 9.21, -1.27 0.38 M-0.16 29.79 C0.9 22.66, 0.21 15.85, -0.15 0.6" stroke="transparent" stroke-width="1" fill="none"></path></g><g transform="translate(10 286.8237263076444) rotate(0 42 12)"><text x="42" y="19" font-family="Cascadia, Segoe UI Emoji" font-size="20px" fill="#000000" text-anchor="middle" style="white-space: pre;" direction="ltr">[index]</text></g><g stroke-linecap="round" transform="translate(476.77876697157626 262.15553203216405) rotate(0 31.11740864006333 31.11740864006424)"><path d="M21.37 2.08 C27.11 -0.26, 34.94 0.08, 41.2 2.39 C47.45 4.69, 55.42 10.19, 58.89 15.92 C62.35 21.66, 63.21 30.14, 62.01 36.81 C60.8 43.48, 56.66 51.68, 51.64 55.93 C46.62 60.18, 38.62 62.48, 31.89 62.31 C25.17 62.14, 16.42 59.12, 11.29 54.91 C6.15 50.69, 2.2 43.43, 1.09 37.02 C-0.01 30.61, 0.91 22.43, 4.68 16.44 C8.45 10.45, 19.81 3.71, 23.72 1.08 C27.63 -1.56, 27.94 0.3, 28.14 0.63 M16.99 1.59 C22.29 -1.4, 32.07 -1.9, 38.51 -0.13 C44.94 1.65, 51.6 6.47, 55.6 12.24 C59.61 18, 62.86 27.6, 62.54 34.47 C62.22 41.35, 58.55 48.92, 53.67 53.5 C48.79 58.07, 40.26 61.53, 33.27 61.93 C26.29 62.33, 17.12 59.89, 11.75 55.91 C6.37 51.94, 2.6 44.25, 1.02 38.09 C-0.56 31.94, -0.55 24.97, 2.25 18.99 C5.06 13.02, 15.37 4.94, 17.85 2.24 C20.32 -0.46, 16.95 2.4, 17.1 2.79" stroke="#000000" stroke-width="1" fill="none"></path></g><g stroke-opacity="0.8" fill-opacity="0.8" stroke-linecap="round" transform="translate(474.7337492176903 279.47732250974514) rotate(0 34.54465914688444 14.565169733174116)"><path d="M-0.52 -1.87 L67.98 1.87 L70.93 29.19 L0.87 29.5" stroke="none" stroke-width="0" fill="#fff"></path><path d="M-1.39 -0.26 C15.16 1.53, 33.42 -1.39, 70.08 1.6 M0.55 0.95 C23.84 -0.1, 46.25 -0.2, 69.72 0.54 M69.75 -0.4 C69.11 9.95, 67.87 18.62, 70.29 27.37 M68.26 -0.75 C68.05 6.78, 69.14 13.43, 69.24 28.9 M69.11 27.96 C48.29 30.48, 29.09 28.08, -1.75 28.32 M68.56 29.28 C52.04 28.22, 35.01 29.12, 0.81 28.66 M-0.42 29.71 C-0.39 17.03, 0.61 6.22, -1.69 -1.46 M0.42 29.1 C0.31 20.7, 0.41 13.47, -0.11 -0.02" stroke="transparent" stroke-width="1" fill="none"></path></g><g transform="translate(471.97305904019595 281.83092613542976) rotate(0 36 12)"><text x="36" y="19" font-family="Cascadia, Segoe UI Emoji" font-size="20px" fill="#000000" text-anchor="middle" style="white-space: pre;" direction="ltr">create</text></g><g stroke-linecap="round" transform="translate(556.8920620426725 394.3261827450697) rotate(0 31.11740864006333 31.11740864006424)"><path d="M44.61 3.65 C50.55 6.07, 56.77 12.08, 59.58 18.07 C62.39 24.05, 63.06 33.02, 61.47 39.56 C59.88 46.1, 55.53 53.53, 50.06 57.32 C44.58 61.12, 35.45 62.91, 28.64 62.33 C21.84 61.75, 13.87 58.51, 9.21 53.87 C4.55 49.23, 1.13 41.33, 0.67 34.49 C0.21 27.64, 2.68 18.38, 6.44 12.79 C10.2 7.19, 16.66 2.42, 23.23 0.9 C29.8 -0.62, 41.95 3.07, 45.87 3.67 C49.78 4.28, 46.85 4.19, 46.73 4.52 M18.13 1.18 C23.86 -1.36, 32.82 -0.41, 39.44 1.94 C46.07 4.28, 54.11 9.73, 57.9 15.25 C61.68 20.76, 63.19 28.75, 62.17 35.01 C61.16 41.27, 56.88 48.29, 51.8 52.83 C46.73 57.36, 38.49 61.87, 31.72 62.23 C24.94 62.58, 16.12 59.09, 11.15 54.94 C6.19 50.8, 3.27 43.98, 1.91 37.37 C0.56 30.76, 0.2 21.24, 3.01 15.27 C5.82 9.31, 16.19 3.75, 18.77 1.56 C21.35 -0.62, 18.32 1.54, 18.49 2.18" stroke="#000000" stroke-width="1" fill="none"></path></g><g stroke-opacity="0.8" fill-opacity="0.8" stroke-linecap="round" transform="translate(547.0410221820484 411.64797322265076) rotate(0 40.030003354846485 14.565169733174116)"><path d="M1.87 1.84 L80.12 0.87 L80.43 27.82 L-1.12 28.68" stroke="none" stroke-width="0" fill="#fff"></path><path d="M1.72 0.43 C17.25 1.53, 38.5 1.2, 80.56 0.51 M0.07 0.2 C28.39 -0.02, 57.35 -0.16, 80.97 -0.62 M79.84 -1.48 C78.28 10.91, 78.24 17.86, 78.41 27.98 M80.36 0.29 C80.31 6.48, 79.61 12.52, 79.16 28.75 M81.68 28.72 C55.19 26.98, 31.08 27.75, -1.5 28.2 M79.47 29.71 C60.58 30.17, 40.01 30.08, -0.78 29.18 M-1.27 29.51 C-1.35 19.31, -1.54 12.55, 1.31 1.32 M-0.15 29.73 C0.9 19.06, -0.01 8.96, -0.93 -0.56" stroke="transparent" stroke-width="1" fill="none"></path></g><g transform="translate(546.0863541112922 414.0015768483354) rotate(0 42 12)"><text x="42" y="19" font-family="Cascadia, Segoe UI Emoji" font-size="20px" fill="#000000" text-anchor="middle" style="white-space: pre;" direction="ltr">history</text></g><g stroke-linecap="round" transform="translate(627.1622606203964 272.8703631710014) rotate(0 31.11740864006333 31.11740864006424)"><path d="M39.02 1.21 C45.22 2.49, 52.93 8.51, 56.92 13.89 C60.91 19.27, 63.51 27, 62.96 33.49 C62.41 39.98, 58.29 47.95, 53.61 52.8 C48.93 57.66, 41.45 61.79, 34.87 62.61 C28.28 63.44, 19.82 61.54, 14.1 57.75 C8.38 53.97, 2.48 46.49, 0.55 39.9 C-1.38 33.31, -0.28 24.48, 2.54 18.22 C5.36 11.96, 11.18 5.01, 17.48 2.35 C23.78 -0.31, 36.19 2.27, 40.34 2.28 C44.5 2.29, 42.6 2.1, 42.44 2.4 M19.03 3.07 C24.97 0.4, 34.26 -0.29, 40.53 1.47 C46.79 3.23, 53.28 8.22, 56.65 13.63 C60.01 19.04, 61.36 27.42, 60.7 33.93 C60.03 40.45, 57.36 47.81, 52.64 52.72 C47.93 57.63, 39.1 62.9, 32.4 63.38 C25.69 63.87, 17.87 59.87, 12.4 55.62 C6.93 51.37, 1.23 44.47, -0.42 37.9 C-2.08 31.33, -0.58 22.23, 2.47 16.22 C5.53 10.22, 15.13 3.94, 17.9 1.84 C20.66 -0.26, 18.88 2.88, 19.06 3.64" stroke="#000000" stroke-width="1" fill="none"></path></g><g stroke-opacity="0.8" fill-opacity="0.8" stroke-linecap="round" transform="translate(603.5009234692079 290.05516515831187) rotate(0 54.616955730094105 14.565169733174116)"><path d="M0.87 0.37 L107.92 -1.12 L108.78 28.76 L-1.26 29.28" stroke="none" stroke-width="0" fill="#fff"></path><path d="M0.99 1.6 C42.85 1.15, 84.88 1.75, 111.14 1.62 M0.63 0.54 C34.06 0.94, 66.51 0.36, 109.03 -0.12 M110.44 -1.76 C107.47 6.76, 107.87 15.17, 107.74 27.53 M109.39 -0.23 C109.18 8.7, 108.94 19.21, 108.65 28.63 M107.48 28.32 C66.64 27.2, 25.08 27.65, 0.3 29.71 M110.05 28.66 C83.6 28.69, 56.59 29.26, 0.29 28.82 M-1.69 27.67 C-0.37 23.56, 1.26 16.2, -0.07 1 M-0.11 29.11 C-0.43 19.9, -0.73 13.47, 0.92 0.03" stroke="transparent" stroke-width="1" fill="none"></path></g><g transform="translate(598.8565526890161 292.5457572742671) rotate(0 59.5 12)"><text x="59.5" y="19" font-family="Cascadia, Segoe UI Emoji" font-size="20px" fill="#000000" text-anchor="middle" style="white-space: pre;" direction="ltr">:productId</text></g><g stroke-linecap="round" transform="translate(713.9212789976518 389.5472902725305) rotate(0 31.11740864006333 31.11740864006424)"><path d="M35.96 1.06 C42.27 1.4, 49.65 5.31, 54.02 10.17 C58.38 15.03, 61.77 23.51, 62.17 30.22 C62.58 36.92, 60.32 45.31, 56.44 50.41 C52.57 55.52, 45.47 59.48, 38.93 60.84 C32.4 62.2, 23.34 61.56, 17.23 58.6 C11.13 55.64, 5.08 49.33, 2.31 43.07 C-0.45 36.82, -1.44 27.56, 0.65 21.07 C2.74 14.57, 8.1 7.41, 14.85 4.08 C21.61 0.76, 35.76 0.99, 41.18 1.12 C46.61 1.26, 47.59 4.39, 47.41 4.88 M35.93 -0.01 C42.14 0.19, 49.92 4.08, 54.21 9.13 C58.49 14.18, 61.58 23.53, 61.65 30.3 C61.71 37.06, 58.45 44.55, 54.6 49.72 C50.76 54.89, 45.04 60.06, 38.56 61.3 C32.07 62.54, 21.86 60.41, 15.7 57.16 C9.53 53.91, 4.1 47.9, 1.56 41.8 C-0.97 35.71, -1.6 26.73, 0.48 20.57 C2.56 14.4, 8.11 8.34, 14.05 4.82 C19.99 1.3, 32.39 0.02, 36.13 -0.54 C39.87 -1.11, 36.43 0.88, 36.48 1.43" stroke="#000000" stroke-width="1" fill="none"></path></g><g transform="translate(720.6155710662715 409.22268437579623) rotate(0 24.5 12)"><text x="24.5" y="19" font-family="Cascadia, Segoe UI Emoji" font-size="20px" fill="#000000" text-anchor="middle" style="white-space: pre;" direction="ltr">edit</text></g><g stroke-linecap="round" transform="translate(824.7692212827424 131.73989676441124) rotate(0 31.11740864006333 31.11740864006424)"><path d="M39.62 1.36 C45.66 2.66, 52.97 8.66, 56.8 14.22 C60.64 19.77, 63.12 28.28, 62.62 34.71 C62.11 41.13, 58.56 48.23, 53.76 52.77 C48.95 57.31, 40.6 61.36, 33.77 61.95 C26.95 62.53, 18.42 60.27, 12.83 56.27 C7.24 52.27, 1.75 44.53, 0.22 37.94 C-1.3 31.35, 0.8 22.74, 3.68 16.74 C6.57 10.73, 10.78 4.32, 17.54 1.93 C24.31 -0.47, 39.1 1.71, 44.27 2.36 C49.44 3.02, 48.65 5.19, 48.57 5.85 M38.07 -0.52 C44.19 0.61, 51.62 7.08, 55.49 12.53 C59.36 17.98, 61.39 25.55, 61.31 32.15 C61.22 38.76, 59.51 47.39, 54.98 52.15 C50.46 56.91, 41.09 60, 34.16 60.71 C27.24 61.42, 19.09 59.95, 13.43 56.39 C7.77 52.83, 2.14 45.6, 0.19 39.37 C-1.76 33.14, -1.15 25.19, 1.74 19.03 C4.64 12.88, 11.33 5.39, 17.57 2.44 C23.8 -0.52, 35.52 1.59, 39.15 1.3 C42.78 1.02, 39.43 0.51, 39.35 0.74" stroke="#000000" stroke-width="1" fill="none"></path></g><g stroke-opacity="0.8" fill-opacity="0.8" stroke-linecap="round" transform="translate(808.9092625606563 149.06168724199233) rotate(0 46.3918417166733 14.565169733174116)"><path d="M-0.37 -1.26 L92.93 -1.99 L91.84 28.11 L1.6 27.76" stroke="none" stroke-width="0" fill="#fff"></path><path d="M1.1 1.91 C32.55 -0.09, 62.25 -0.28, 94.04 1.07 M0.33 -0.2 C32.27 0.46, 64.04 -0.28, 93.39 -0.88 M91.13 -1.5 C90.94 7.08, 93.13 13.9, 93.09 28.67 M92.79 -0.59 C92.02 9.16, 92.31 16.3, 91.91 28.72 M91.73 29.43 C70.08 27.52, 47.4 29.33, 1.62 28.19 M92.57 29.42 C58.01 28.54, 24.03 28.54, -0.84 28.4 M0.84 29.06 C0.81 20.55, 1 14.36, -0.23 -0.03 M0.94 30.05 C0.3 21.58, 0.46 12.51, -0.56 -0.23" stroke="transparent" stroke-width="1" fill="none"></path></g><g transform="translate(807.963513351362 151.41529086767696) rotate(0 48 12)"><text x="48" y="19" font-family="Cascadia, Segoe UI Emoji" font-size="20px" fill="#000000" text-anchor="middle" style="white-space: pre;" direction="ltr">settings</text></g><g stroke-linecap="round" transform="translate(361.0562206721879 264.99467059163726) rotate(0 31.11740864006333 31.11740864006424)"><path d="M32.88 0.56 C39.27 0.55, 47.73 4.5, 52.46 8.93 C57.2 13.37, 60.52 20.73, 61.32 27.16 C62.12 33.6, 60.74 42.05, 57.28 47.52 C53.82 52.99, 47.03 57.81, 40.58 59.98 C34.12 62.16, 24.86 63.07, 18.56 60.55 C12.25 58.04, 5.85 51, 2.74 44.91 C-0.38 38.82, -1.54 30.54, -0.14 24.03 C1.27 17.51, 4.31 9.46, 11.17 5.82 C18.03 2.18, 34.52 1.9, 41.03 2.2 C47.55 2.5, 50.29 7.22, 50.27 7.62 M29.03 -0.81 C35.42 -1.33, 43.38 3.22, 48.71 7.2 C54.04 11.18, 59.51 16.9, 61.02 23.07 C62.52 29.24, 60.75 38.32, 57.74 44.21 C54.73 50.11, 48.97 55.78, 42.97 58.45 C36.98 61.12, 28.02 61.81, 21.78 60.22 C15.53 58.63, 9.25 54.15, 5.5 48.89 C1.76 43.64, -1.46 35.17, -0.7 28.67 C0.05 22.17, 5.19 14.49, 10.02 9.9 C14.86 5.31, 25.34 2.67, 28.32 1.14 C31.29 -0.38, 27.79 0.35, 27.89 0.76" stroke="#000000" stroke-width="1" fill="none"></path></g><g stroke-opacity="0.8" fill-opacity="0.8" stroke-linecap="round" transform="translate(356.7683066199361 282.31646106921835) rotate(0 36.34988882802327 14.565169733174116)"><path d="M-1.99 -0.95 L71.68 1.6 L71.33 28.38 L-1.32 28.35" stroke="none" stroke-width="0" fill="#fff"></path><path d="M0.15 0.4 C25.75 0.67, 52.67 0.39, 74.52 -1.24 M-0.11 -0.74 C23.36 0.69, 47.55 -0.68, 71.87 -0.57 M73.29 0.58 C73.41 6.63, 72.02 12.38, 70.89 28.36 M73.51 -0.21 C72.14 7.89, 72.12 17.04, 71.95 28.67 M71.52 30.3 C55.36 30.96, 35.82 30.77, -1.56 29.22 M72.06 29.32 C51.77 28.06, 31.39 28.75, 0.65 29.79 M-0.3 30.33 C1.8 18.95, -0.02 8.7, -1.87 -1.11 M0.44 29.31 C-0.92 17.11, -0.49 6.01, -0.63 0.07" stroke="transparent" stroke-width="1" fill="none"></path></g><g transform="translate(350.2505127408076 284.6700646948884) rotate(0 42 12)"><text x="42" y="19" font-family="Cascadia, Segoe UI Emoji" font-size="20px" fill="#000000" text-anchor="middle" style="white-space: pre;" direction="ltr">[index]</text></g><g stroke-linecap="round"><g transform="translate(537.2641049718695 180.00792499274394) rotate(0 47.77201671737521 49.17743393645105)"><path d="M0.24 -0.03 C16.18 16.53, 80.6 82.79, 96.64 99.44 M-1.09 -1.09 C14.67 15.11, 79.9 81.12, 96.09 97.66" stroke="#000000" stroke-width="2" fill="none"></path></g></g><g stroke-linecap="round"><g transform="translate(651.4033089089498 332.660237950593) rotate(0 -23.204993985129477 30.422524274261377)"><path d="M-0.03 0.75 C-7.67 10.84, -38.22 50.97, -45.77 60.74 M-1.5 0.1 C-9.26 9.81, -39.05 48.89, -46.38 58.93" stroke="#000000" stroke-width="2" fill="none"></path></g></g><g stroke-linecap="round"><g stroke-opacity="0.8" fill-opacity="0.8" transform="translate(513.7155972952569 190.8354602157051) rotate(0 -0.10333603090111865 37.794134489080534)"><path d="M0.75 0.64 C0.67 13.26, 0.11 63.27, -0.28 75.65 M-0.31 -0.07 C-0.52 12.24, -1.12 61.96, -0.92 74.11" stroke="#000000" stroke-width="1" fill="none"></path></g></g><g stroke-linecap="round"><g stroke-opacity="0.8" fill-opacity="0.8" transform="translate(488.5522733503585 179.9067213771923) rotate(0 -45.29276289698555 44.211705166721)"><path d="M0.64 0.59 C-14.5 15.03, -75.49 72.87, -90.85 87.42 M-0.48 -0.15 C-15.68 14.37, -75.96 73.69, -91.23 88.57" stroke="#000000" stroke-width="1" fill="none"></path></g></g><g stroke-linecap="round"><g stroke-opacity="0.8" fill-opacity="0.8" transform="translate(484.2110622569844 49.226455073621764) rotate(0 -148.68082322410328 47.222797474207255)"><path d="M0.59 1.09 C-49.19 16.62, -248.28 78.46, -297.95 93.82 M-0.56 0.62 C-50.02 15.72, -246 76.26, -295.63 91.91" stroke="#000000" stroke-width="1" fill="none"></path></g></g><g stroke-linecap="round"><g stroke-opacity="0.8" fill-opacity="0.8" transform="translate(175.551831784589 193.18844491225173) rotate(0 20.18094615352311 38.504155132657615)"><path d="M1.09 -0.74 C7.68 11.88, 33.74 63.48, 40.15 76.34 M0.21 1.48 C6.61 14.24, 32.99 65.05, 39.42 77.75" stroke="#000000" stroke-width="1" fill="none"></path></g></g><g stroke-linecap="round"><g stroke-opacity="0.8" fill-opacity="0.8" transform="translate(136.6643842893718 183.94665997808625) rotate(0 -39.090784195868764 41.31609995433064)"><path d="M-0.74 0.4 C-13.87 13.82, -65.29 68.2, -78.17 81.61 M1.07 -0.44 C-12.29 13.69, -65.92 69.38, -79.25 83.07" stroke="#000000" stroke-width="1" fill="none"></path></g></g><g stroke-linecap="round"><g stroke-opacity="0.8" fill-opacity="0.8" transform="translate(548.7188183282478 49.32854738483002) rotate(0 140.35041528539887 48.33833310660884)"><path d="M0.4 -0.24 C47.14 15.99, 234.82 80.63, 281.55 96.62 M-0.85 -1.41 C45.62 15.07, 233.18 81.77, 280.53 98.09" stroke="#000000" stroke-width="1" fill="none"></path></g></g><g stroke-linecap="round"><g stroke-opacity="0.8" fill-opacity="0.8" transform="translate(680.8941876772478 328.1593418755874) rotate(0 25.89892293520552 28.89066240761167)"><path d="M-0.24 -0.15 C8.82 9.45, 44.8 48.03, 53.63 57.98 M-1.83 -1.27 C7.13 8.42, 43.12 49.24, 52.61 59.05" stroke="#000000" stroke-width="1" fill="none"></path></g></g><g stroke-linecap="round" transform="translate(484.44221398459104 10) rotate(0 31.11740864006333 31.11740864006424)"><path d="M18.96 1.34 C24.72 -1.52, 33.97 -1.07, 40.3 1.08 C46.62 3.23, 53.43 8.38, 56.89 14.23 C60.35 20.07, 61.9 29.36, 61.07 36.15 C60.24 42.94, 56.78 50.67, 51.93 54.98 C47.07 59.29, 38.68 62.08, 31.95 62 C25.21 61.91, 16.79 58.62, 11.5 54.48 C6.22 50.35, 1.59 43.67, 0.21 37.2 C-1.16 30.72, -0.76 21.72, 3.25 15.65 C7.26 9.57, 20.33 3.36, 24.27 0.75 C28.21 -1.86, 26.95 -0.47, 26.88 -0.01 M19.94 2.59 C25.66 0.18, 33.76 0.24, 40.12 2.49 C46.48 4.74, 54.61 10.37, 58.13 16.09 C61.64 21.8, 62.45 30.4, 61.19 36.8 C59.93 43.2, 55.49 50.19, 50.56 54.5 C45.63 58.81, 38.15 62.65, 31.61 62.66 C25.06 62.66, 16.39 58.89, 11.27 54.51 C6.16 50.13, 2.37 42.92, 0.91 36.36 C-0.55 29.8, -0.58 20.7, 2.51 15.17 C5.61 9.63, 16.41 5.11, 19.49 3.14 C22.56 1.18, 20.72 2.92, 20.94 3.37" stroke="#000000" stroke-width="1" fill="none"></path></g><g stroke-opacity="0.8" fill-opacity="0.8" stroke-linecap="round" transform="translate(496.9847550052864 26.378651983504824) rotate(0 17.127200590780376 13.56855431418262)"><path d="M0.29 -1.47 L35.2 1.94 L34.74 26.06 L-0.55 27.22" stroke="none" stroke-width="0" fill="#fff"></path><path d="M-1.48 -1.72 C10.79 -1.73, 17.63 -1.61, 33.11 -1.66 M0.29 0.46 C7.87 -0.33, 15.3 -1, 33.87 0.01 M33.84 -0.78 C32.37 5.74, 33.14 11.61, 33.33 26.08 M34.84 0.31 C35.14 8.07, 35.05 16.3, 34.3 26.93 M34.64 25.87 C21.31 25.46, 11.42 28.23, 1.32 27.97 M34.85 28.03 C23.98 27.07, 13.67 26.15, -0.56 28.07 M0.37 25.82 C-1.12 16.05, -0.38 4.61, 0.15 -1.99 M-0.68 26.76 C-0.52 19.89, 0.68 13.45, 0.7 0.6" stroke="transparent" stroke-width="1" fill="none"></path></g><g transform="translate(507.3658610628163 29.466347942201537) rotate(0 7 12)"><text x="7" y="19" font-family="Cascadia, Segoe UI Emoji" font-size="20px" fill="#000000" text-anchor="middle" style="white-space: pre;" direction="ltr">/</text></g></svg>