<svg version="1.1" xmlns="http://www.w3.org/2000/svg" viewBox="0 0 1154.2128489364832 507.086724714758" width="1154.2128489364832" height="507.086724714758" filter="invert(93%) hue-rotate(180deg)">
  <!-- svg-source:excalidraw -->
  
  <defs>
    <style class="style-fonts">
      @font-face {
        font-family: "Virgil";
        src: url("https://excalidraw.com/Virgil.woff2");
      }
      @font-face {
        font-family: "Cascadia";
        src: url("https://excalidraw.com/Cascadia.woff2");
      }
    </style>
  </defs>
  <g stroke-linecap="round"><g stroke-opacity="0.8" fill-opacity="0.8" transform="translate(781.9616970707139 273.9323586541432) rotate(0 178.33746795551724 -0.09123853812161542)"><path d="M0.22 0.12 C59.91 0.18, 298.15 -0.53, 357.8 -0.5 M-1.12 -0.87 C58.51 -0.58, 297.46 0.26, 357.31 0.69" stroke="#000000" stroke-width="1" fill="none"></path></g></g><g stroke-opacity="0.8" fill-opacity="0.8" stroke-linecap="round" transform="translate(602.3749225541869 176.11822133567694) rotate(0 270.9189631911481 160.48425168954054)"><path d="M0.58 -0.44 C122.66 -0.12, 243.94 -0.21, 541.94 0.74 M0.06 -0.16 C190.34 0.05, 380.48 0.14, 541.87 -0.26 M540.68 1.19 C543.37 120.47, 542.45 241.67, 542.59 322.33 M541.74 -0.22 C540.93 105.42, 541.18 211.23, 541.2 320.3 M541.99 321.64 C368.08 321.13, 195.36 321.2, -0.72 320.94 M541.54 320.89 C386.49 320.14, 231.7 319.89, 0.1 321.01 M0.98 320.73 C3.03 222.07, 3.22 119.44, -0.44 -0.65 M-0.48 320.74 C2.41 244.71, 1.91 167.35, -0.43 -0.01" stroke="#000000" stroke-width="1" fill="none"></path></g><g stroke-linecap="round"><g stroke-opacity="0.8" fill-opacity="0.8" transform="translate(602.1942972719189 215.0161597912629) rotate(0 270.54179809238485 0.5493581293230818)"><path d="M0.87 -0.67 C91.04 -0.66, 451.31 0.02, 541.22 0.13 M-0.13 1.6 C89.96 1.8, 450.91 1.78, 540.88 1.73" stroke="#000000" stroke-width="1" fill="none"></path></g></g><g stroke-linecap="round"><g stroke-opacity="0.8" fill-opacity="0.8" transform="translate(706.8026121651492 220.6672169195117) rotate(0 0.21623367274196426 126.23211416077174)"><path d="M-0.67 1.16 C-0.66 42.97, 0.02 209.99, 0.13 251.74 M1.18 0.73 C1.03 42.08, -0.43 207.7, -0.75 249.75" stroke="#000000" stroke-width="1" fill="none"></path></g></g><g stroke-opacity="0.8" fill-opacity="0.8" transform="translate(729.5514558220802 257.6120117290884) rotate(0 21.5 7.5)"><text x="21.5" y="12" font-family="Helvetica, Segoe UI Emoji" font-size="13.064647517905877px" fill="#000000" text-anchor="middle" style="white-space: pre;" direction="ltr">History</text></g><g stroke-opacity="0.8" fill-opacity="0.8" transform="translate(796.4818852486496 257.99758632349767) rotate(0 11 7)"><text x="11" y="11" font-family="Helvetica, Segoe UI Emoji" font-size="11.843795671822138px" fill="#000000" text-anchor="middle" style="white-space: pre;" direction="ltr">Edit</text></g><g stroke-opacity="0.8" fill-opacity="0.8" stroke-linecap="round" transform="translate(748.471890124556 295.107916459845) rotate(0 161.622977371027 6.718373686833729)"><path d="M3.57 0.42 L319.89 0.26 L324.89 2.91 L323.93 9.97 L322.71 11.77 L320.86 13.1 L4.33 13.55 L0.99 11.28 L1.49 10.42 L-1.1 0.24 L5.07 1.64" stroke="none" stroke-width="0" fill="#ced4da"></path><path d="M3.36 0 M3.36 0 C104.11 -0.51, 203.74 -2.08, 319.89 0 M3.36 0 C113.61 0.37, 224.7 0.42, 319.89 0 M319.89 0 C320.3 -1.9, 323.65 -0.07, 323.25 3.36 M319.89 0 C322.42 0.43, 325.19 0.39, 323.25 3.36 M323.25 3.36 C322.69 5.26, 323.2 7.62, 323.25 10.08 M323.25 3.36 C323.07 5.28, 323.41 6.73, 323.25 10.08 M323.25 10.08 C323.74 12.52, 322.36 11.75, 319.89 13.44 M323.25 10.08 C322.03 13.93, 321.74 15.31, 319.89 13.44 M319.89 13.44 C197.8 10.58, 75.74 9.85, 3.36 13.44 M319.89 13.44 C225.48 13.11, 130.37 12.41, 3.36 13.44 M3.36 13.44 C-0.11 13.4, 0.6 12.58, 0 10.08 M3.36 13.44 C1.12 11.86, -2.07 13.12, 0 10.08 M0 10.08 C0.37 8.12, -0.25 5.77, 0 3.36 M0 10.08 C-0.24 7.16, 0 4.59, 0 3.36 M0 3.36 C-1.08 2.67, 1.01 -0.25, 3.36 0 M0 3.36 C-2.26 2.65, 3.17 1.61, 3.36 0" stroke="transparent" stroke-width="1" fill="none"></path></g><g stroke-opacity="0.8" fill-opacity="0.8" stroke-linecap="round" transform="translate(799.420249294797 325.0956140904418) rotate(0 135.65467759509465 6.740519129558379)"><path d="M3.79 0.01 L268.2 1.86 L272.12 2.58 L271.2 10.42 L269.64 13.61 L267.6 14.45 L3.49 13.63 L-0.47 14.13 L0.34 8.8 L-1.44 3.6 L5.01 0.32" stroke="none" stroke-width="0" fill="#ced4da"></path><path d="M3.37 0 M3.37 0 C88.65 -0.67, 170.63 -0.34, 267.94 0 M3.37 0 C78.71 1.39, 154.48 1.05, 267.94 0 M267.94 0 C268.28 0.4, 270.12 1.37, 271.31 3.37 M267.94 0 C270.61 1.94, 270.58 0.79, 271.31 3.37 M271.31 3.37 C271.28 5.75, 271.73 7.96, 271.31 10.11 M271.31 3.37 C271.56 5.11, 271.34 6.5, 271.31 10.11 M271.31 10.11 C271.52 12.59, 268.5 12.42, 267.94 13.48 M271.31 10.11 C272.92 11.97, 272.06 15.42, 267.94 13.48 M267.94 13.48 C162.56 11.85, 57.1 12.8, 3.37 13.48 M267.94 13.48 C207.2 13.74, 145.22 13.59, 3.37 13.48 M3.37 13.48 C1.08 14.08, 0.26 12.36, 0 10.11 M3.37 13.48 C-0.46 11.41, 0.81 12.14, 0 10.11 M0 10.11 C-0.02 8.22, -0.42 7.53, 0 3.37 M0 10.11 C-0.36 8.53, -0.3 6.87, 0 3.37 M0 3.37 C1.55 1.01, 0.87 -1.96, 3.37 0 M0 3.37 C1.53 3.17, 2.73 0.16, 3.37 0" stroke="transparent" stroke-width="1" fill="none"></path></g><g stroke-opacity="0.8" fill-opacity="0.8" stroke-linecap="round" transform="translate(795.5669422605715 363.5954662686454) rotate(0 137.1135086346335 6.344669340842302)"><path d="M3.18 0.26 L272.91 1.02 L274.71 1.68 L274.53 8.69 L274.41 11.56 L272.03 12.81 L3.32 11.37 L2.29 12.24 L-1.31 7.86 L1.91 3.43 L3.49 0.33" stroke="none" stroke-width="0" fill="#ced4da"></path><path d="M3.17 0 M3.17 0 C106.63 -2.27, 209.95 -2.27, 271.05 0 M3.17 0 C74.63 0.69, 146.13 0.26, 271.05 0 M271.05 0 C273.57 -1.19, 274.48 1.43, 274.23 3.17 M271.05 0 C275.11 -0.73, 273.9 2.59, 274.23 3.17 M274.23 3.17 C274.08 5.44, 273.84 6.44, 274.23 9.52 M274.23 3.17 C274.4 4.99, 274.28 6.76, 274.23 9.52 M274.23 9.52 C274.46 9.95, 272.11 14.09, 271.05 12.69 M274.23 9.52 C273.84 13.51, 275.11 14.89, 271.05 12.69 M271.05 12.69 C216.08 10.15, 163 10.62, 3.17 12.69 M271.05 12.69 C199.24 13.61, 127.61 13.91, 3.17 12.69 M3.17 12.69 C1.65 12.95, 0 10.26, 0 9.52 M3.17 12.69 C-1.01 13.5, -0.22 10.17, 0 9.52 M0 9.52 C-0.31 7.11, 0.54 5.01, 0 3.17 M0 9.52 C0.01 6.77, -0.12 4.72, 0 3.17 M0 3.17 C-0.11 0.8, -0.91 1.33, 3.17 0 M0 3.17 C2.05 2.66, 1.22 -0.64, 3.17 0" stroke="transparent" stroke-width="1" fill="none"></path></g><g stroke-opacity="0.8" fill-opacity="0.8" stroke-linecap="round" transform="translate(846.1083789207332 395.3354220549045) rotate(0 111.44555642566456 10.39036490874605)"><path d="M5.46 1.86 L218.71 0.68 L222.46 3.23 L222.07 16.56 L221.26 20.46 L217.81 20.93 L3.88 22.27 L1.64 18.18 L-1.65 17.29 L1.97 3.24 L5.53 1.69" stroke="none" stroke-width="0" fill="#ced4da"></path><path d="M5.2 0 M5.2 0 C80.19 0.33, 155.43 -1.11, 217.7 0 M5.2 0 C50.58 0.11, 95.86 1.1, 217.7 0 M217.7 0 C219.97 0.25, 223.26 3.42, 222.89 5.2 M217.7 0 C220.43 -0.33, 224.42 1.61, 222.89 5.2 M222.89 5.2 C223.54 6.83, 222.12 9.35, 222.89 15.59 M222.89 5.2 C223.04 8.04, 223.03 10.69, 222.89 15.59 M222.89 15.59 C221.2 17.99, 222.56 20.45, 217.7 20.78 M222.89 15.59 C224.77 20.99, 223.36 18.52, 217.7 20.78 M217.7 20.78 C158.9 19.62, 102.36 19.06, 5.2 20.78 M217.7 20.78 C147.57 19.44, 78.12 20.24, 5.2 20.78 M5.2 20.78 C2 20.78, -1.37 17.25, 0 15.59 M5.2 20.78 C2.54 20.56, -1.46 19.49, 0 15.59 M0 15.59 C-0.63 12.9, -0.76 9.35, 0 5.2 M0 15.59 C-0.28 13.09, 0.49 11.12, 0 5.2 M0 5.2 C-0.25 -0.23, 3.06 1.78, 5.2 0 M0 5.2 C1.61 1.89, 1.09 0.29, 5.2 0" stroke="transparent" stroke-width="1" fill="none"></path></g><g stroke-opacity="0.8" fill-opacity="0.8" stroke-linecap="round" transform="translate(748.8455944705474 356.1684384145956) rotate(0 13.481038259118577 13.481038259118577)"><path d="M13.31 -0.94 C15.84 -1.56, 18.84 0.33, 20.94 2 C23.04 3.66, 25.12 6.3, 25.9 9.05 C26.69 11.81, 26.85 15.71, 25.67 18.54 C24.48 21.36, 21.32 24.75, 18.8 26 C16.28 27.26, 13.33 26.97, 10.53 26.06 C7.73 25.15, 3.76 22.81, 2.01 20.56 C0.26 18.31, -0.31 15.33, 0.04 12.56 C0.39 9.78, 1.8 6.15, 4.12 3.91 C6.43 1.68, 11.74 -0.3, 13.9 -0.85 C16.06 -1.41, 17.09 0.17, 17.08 0.58 M15.81 1.75 C18.33 2.59, 21.64 5.11, 23.28 7 C24.92 8.88, 25.68 10.61, 25.63 13.07 C25.58 15.54, 24.89 19.27, 22.97 21.77 C21.05 24.26, 16.95 27.59, 14.1 28.05 C11.25 28.5, 8.39 26.12, 5.88 24.48 C3.37 22.84, -0.38 20.78, -0.95 18.22 C-1.51 15.65, 1.06 11.94, 2.49 9.07 C3.93 6.19, 5.25 2.55, 7.66 0.96 C10.06 -0.64, 15.54 -0.47, 16.91 -0.51 C18.28 -0.56, 15.92 0.26, 15.89 0.68" stroke="none" stroke-width="0" fill="#ced4da"></path><path d="M14.34 0.53 C17.17 0.49, 20.98 1.85, 22.96 3.92 C24.95 5.98, 25.94 10.15, 26.24 12.9 C26.54 15.66, 26.44 18.03, 24.78 20.44 C23.12 22.84, 18.96 26.4, 16.29 27.32 C13.62 28.23, 11.21 27.11, 8.74 25.92 C6.28 24.73, 2.79 22.63, 1.49 20.16 C0.2 17.69, 0.22 14.07, 0.96 11.11 C1.7 8.15, 3.24 4.2, 5.92 2.39 C8.6 0.57, 15 0.55, 17.02 0.21 C19.04 -0.13, 18.26 0.2, 18.04 0.36 M11.01 -0.6 C13.92 -1.05, 17.31 0.44, 20.02 1.87 C22.73 3.3, 26.25 5.18, 27.26 7.98 C28.27 10.78, 27.2 16.07, 26.08 18.67 C24.96 21.27, 22.95 22.25, 20.52 23.58 C18.1 24.9, 14.22 26.94, 11.53 26.62 C8.84 26.31, 6.49 23.86, 4.38 21.7 C2.28 19.53, -0.76 16.19, -1.11 13.63 C-1.45 11.06, 0.17 8.51, 2.29 6.32 C4.42 4.14, 10.19 1.42, 11.66 0.49 C13.13 -0.45, 11.21 0.73, 11.13 0.71" stroke="transparent" stroke-width="1" fill="none"></path></g><g stroke-opacity="0.8" fill-opacity="0.8" stroke-linecap="round" transform="translate(747.1846862661405 316.3177142301465) rotate(0 13.481038259118577 13.481038259118577)"><path d="M17.84 0.79 C20.21 1.46, 23.77 4.19, 25.06 6.82 C26.36 9.45, 26.32 13.72, 25.61 16.58 C24.91 19.44, 22.95 22.14, 20.84 23.96 C18.74 25.79, 15.82 27.71, 12.98 27.53 C10.14 27.35, 6.05 24.97, 3.8 22.89 C1.55 20.8, -0.31 17.81, -0.52 15.02 C-0.74 12.24, 0.83 8.73, 2.52 6.2 C4.21 3.68, 6.74 0.51, 9.62 -0.12 C12.49 -0.75, 17.68 1.92, 19.74 2.41 C21.81 2.91, 21.96 2.64, 22.03 2.85 M14.8 -1.09 C17.9 -1.34, 21.8 -0.17, 23.58 1.83 C25.35 3.82, 25.34 7.95, 25.43 10.88 C25.52 13.8, 25.14 16.85, 24.11 19.38 C23.09 21.91, 21.85 25.17, 19.29 26.05 C16.72 26.94, 11.46 25.43, 8.71 24.69 C5.97 23.94, 4.07 23.82, 2.82 21.59 C1.58 19.36, 0.99 14.32, 1.25 11.28 C1.5 8.25, 2.49 5.38, 4.37 3.37 C6.25 1.36, 11.02 -0.3, 12.54 -0.77 C14.06 -1.23, 13.26 0.29, 13.47 0.58" stroke="none" stroke-width="0" fill="#ced4da"></path><path d="M11.21 0.34 C13.79 -0.47, 17.33 -0.44, 19.92 0.94 C22.51 2.32, 25.79 5.99, 26.74 8.64 C27.7 11.3, 26.52 14.01, 25.64 16.86 C24.75 19.71, 23.76 24.07, 21.44 25.76 C19.12 27.45, 14.58 27.45, 11.72 26.99 C8.86 26.53, 6.07 25.14, 4.28 23.01 C2.49 20.88, 1.24 17.1, 0.98 14.2 C0.72 11.31, 0.81 8.07, 2.75 5.65 C4.69 3.23, 10.75 0.67, 12.62 -0.3 C14.48 -1.26, 13.98 -0.35, 13.93 -0.15 M6.63 1.58 C9.3 0.37, 14.09 1.03, 16.97 1.66 C19.84 2.28, 22.05 3.19, 23.88 5.3 C25.71 7.4, 28.27 11.38, 27.93 14.29 C27.59 17.2, 24.06 20.5, 21.86 22.76 C19.67 25.02, 17.52 27.69, 14.74 27.82 C11.96 27.96, 7.62 25.43, 5.2 23.57 C2.78 21.72, 0.72 19.1, 0.24 16.67 C-0.24 14.24, 1.06 11.49, 2.31 9 C3.56 6.51, 6.81 2.95, 7.72 1.76 C8.64 0.56, 7.94 1.8, 7.8 1.81" stroke="transparent" stroke-width="1" fill="none"></path></g><g stroke-opacity="0.8" fill-opacity="0.8" transform="translate(641.7254304768703 225.8397449233271) rotate(0 26 9)"><text x="26" y="14" font-family="Helvetica, Segoe UI Emoji" font-size="16px" fill="transparent" text-anchor="middle" style="white-space: pre;" direction="ltr">History</text></g><g stroke-opacity="0.8" fill-opacity="0.8" transform="translate(611.9567869780985 233.92892321927866) rotate(0 21 6)"><text x="0" y="10" font-family="Helvetica, Segoe UI Emoji" font-size="10.083297275551145px" fill="#000000" text-anchor="start" style="white-space: pre;" direction="ltr">Products</text></g><g stroke-opacity="0.8" fill-opacity="0.8" transform="translate(611.4353456871795 260.728943979866) rotate(0 25.5 6)"><text x="0" y="10" font-family="Helvetica, Segoe UI Emoji" font-size="10.083297275551145px" fill="#000000" text-anchor="start" style="white-space: pre;" direction="ltr">Customers</text></g><g stroke-opacity="0.8" fill-opacity="0.8" transform="translate(612.8404958026767 283.56041572051254) rotate(0 19 6)"><text x="0" y="10" font-family="Helvetica, Segoe UI Emoji" font-size="10.083297275551145px" fill="#000000" text-anchor="start" style="white-space: pre;" direction="ltr">Settings</text></g><g stroke-linecap="round"><g stroke-opacity="0.8" fill-opacity="0.8" transform="translate(611.0995334278905 252.05718092992538) rotate(0 37.8135910200881 -0.31735824415591196)"><path d="M0.58 0.07 C13.19 -0.03, 63.46 -0.84, 76.2 -0.82 M-0.57 -0.94 C11.83 -0.89, 62.42 -0.12, 75.29 0.3" stroke="#364fc7" stroke-width="1" fill="none"></path></g></g><g stroke-opacity="0.8" fill-opacity="0.8" transform="translate(616.2123625171298 187.74200697611013) rotate(0 46 9)"><text x="0" y="14" font-family="Helvetica, Segoe UI Emoji" font-size="16px" fill="#495057" text-anchor="start" style="white-space: pre;" direction="ltr">MyCompany</text></g><g stroke-opacity="0.8" fill-opacity="0.8" stroke-linecap="round" transform="translate(1105.8065784717528 182.5537089360987) rotate(0 13.481038259118577 13.481038259118577)"><path d="M6.77 1.89 C9.21 0.48, 14 -0.59, 16.82 -0.15 C19.64 0.29, 21.99 2.14, 23.67 4.53 C25.36 6.92, 26.94 11.21, 26.94 14.2 C26.94 17.19, 25.7 20.51, 23.67 22.46 C21.63 24.42, 17.54 25.53, 14.72 25.92 C11.9 26.32, 9.18 26.19, 6.73 24.85 C4.29 23.51, 0.92 20.62, 0.04 17.89 C-0.84 15.16, 0.21 11.36, 1.45 8.47 C2.69 5.59, 6.09 1.95, 7.47 0.6 C8.85 -0.75, 9.4 0.23, 9.73 0.39 M6.9 2.45 C9.34 1.27, 14.13 -0.46, 16.82 0.25 C19.5 0.95, 21.1 4.12, 23.01 6.68 C24.91 9.25, 28.23 12.99, 28.25 15.63 C28.28 18.27, 25.39 20.82, 23.17 22.54 C20.95 24.27, 17.94 25.66, 14.92 26 C11.9 26.34, 7.4 26.03, 5.04 24.59 C2.68 23.16, 1.48 20.24, 0.78 17.39 C0.09 14.54, -0.25 10.4, 0.85 7.5 C1.95 4.59, 6.23 0.89, 7.38 -0.03 C8.53 -0.94, 7.43 1.44, 7.73 2.01" stroke="none" stroke-width="0" fill="#ced4da"></path><path d="M17.57 1.78 C20.3 2.76, 24.59 4.65, 26.14 7.18 C27.69 9.72, 27.48 14.02, 26.86 16.99 C26.25 19.95, 24.67 23.35, 22.44 24.99 C20.2 26.63, 16.35 27.07, 13.45 26.82 C10.56 26.56, 7.34 25.49, 5.07 23.46 C2.8 21.43, 0.43 17.57, -0.17 14.65 C-0.76 11.74, 0 8.45, 1.49 5.97 C2.98 3.49, 5.95 0.53, 8.76 -0.21 C11.57 -0.95, 16.56 1.13, 18.34 1.52 C20.11 1.9, 19.33 1.81, 19.42 2.12 M11.27 -1.18 C13.98 -1.99, 17.71 0.13, 20.36 1.71 C23.01 3.29, 26.39 5.57, 27.16 8.28 C27.93 11, 26.25 14.97, 24.96 17.99 C23.68 21.02, 21.64 24.94, 19.46 26.43 C17.28 27.91, 14.56 27.63, 11.88 26.92 C9.21 26.2, 5.34 24.62, 3.39 22.14 C1.43 19.65, 0.33 14.74, 0.18 12 C0.03 9.26, 0.68 7.47, 2.5 5.71 C4.32 3.94, 9.41 2.03, 11.1 1.39 C12.79 0.75, 12.83 1.93, 12.66 1.87" stroke="transparent" stroke-width="1" fill="none"></path></g><g stroke-linecap="round"><g transform="translate(719.412015076281 230.77986994367166) rotate(0 5.6955864595033745 0.040201273313869024)"><path d="M0 0 C1.9 0.01, 9.49 0.07, 11.39 0.08 M0 0 C1.9 0.01, 9.49 0.07, 11.39 0.08" stroke="#495057" stroke-width="2" fill="none"></path></g></g><g stroke-linecap="round"><g transform="translate(722.9221141320322 226.04505330900793) rotate(0 -2.784851842241096 2.4668963169460767)"><path d="M0 0 C-0.93 0.82, -4.64 4.11, -5.57 4.93 M0 0 C-0.93 0.82, -4.64 4.11, -5.57 4.93" stroke="#495057" stroke-width="2" fill="none"></path></g></g><g stroke-linecap="round"><g transform="translate(717.731683066484 230.92686853902342) rotate(0 2.2987819012723776 2.620392087777873)"><path d="M0 0 C0.77 0.87, 3.83 4.37, 4.6 5.24 M0 0 C0.77 0.87, 3.83 4.37, 4.6 5.24" stroke="#495057" stroke-width="2" fill="none"></path></g></g><g stroke-opacity="0.8" fill-opacity="0.8" transform="translate(739.2253841196025 222.83553400940582) rotate(0 38 7.5)"><text x="0" y="12" font-family="Helvetica, Segoe UI Emoji" font-size="13.064647517905877px" fill="#000000" text-anchor="start" style="white-space: pre;" direction="ltr">Widget-4000</text></g><g stroke-linecap="round"><g stroke-opacity="0.8" fill-opacity="0.8" transform="translate(706.1059255015607 242.2008072044082) rotate(0 217.02647243620913 0.12937087431600958)"><path d="M0.99 0.19 C73.49 0.19, 361.76 0.85, 434.01 1.01 M0.04 -0.76 C72.49 -0.55, 360.83 -0.61, 433.16 -0.58" stroke="#000000" stroke-width="1" fill="none"></path></g></g><g stroke-linecap="round"><g transform="translate(719.0065657823015 273.9131599522043) rotate(0 31.586492946666112 -8.99354125328864)"><path d="M0 0 C0.16 -6.93, 0.32 -13.87, 0.41 -17.99 M0 0 C0.11 -4.82, 0.22 -9.65, 0.41 -17.99 M0.41 -17.99 C24.21 -17.91, 48.02 -17.83, 62.32 -17.79 M0.41 -17.99 C17.75 -17.93, 35.09 -17.87, 62.32 -17.79 M62.32 -17.79 C62.56 -12.78, 62.8 -7.76, 63.17 -0.1 M62.32 -17.79 C62.54 -13.07, 62.77 -8.35, 63.17 -0.1" stroke="#000000" stroke-width="1" fill="none"></path></g></g><g stroke-opacity="0.8" fill-opacity="0.8" stroke-linecap="round" transform="translate(10.169443427587794 62.83840487106863) rotate(0 270.9189631911481 160.48425168954054)"><path d="M0.64 -0.38 C197.27 -0.94, 395.04 -1.03, 541.32 -0.34 M-0.31 -0.26 C186 -1.15, 372.6 -0.56, 541.71 0.23 M541 1.32 C541.79 116.28, 544.01 232.62, 540.79 319.88 M541.43 -0.3 C540.28 84.28, 540.03 168.74, 541.57 320.73 M541.54 321.05 C346.07 321.86, 150.99 320.81, -0.1 321.42 M542.12 320.76 C413.44 321.79, 285.78 321.78, -0.17 320.76 M-1.28 320.22 C3.14 234.16, 2.29 147.04, -0.53 1.31 M-0.52 321.11 C0.68 236.48, 1.53 152.75, -0.58 0.49" stroke="#000000" stroke-width="1" fill="none"></path></g><g stroke-linecap="round"><g stroke-opacity="0.8" fill-opacity="0.8" transform="translate(9.988818145319783 101.7363433266546) rotate(0 270.71382118511656 0.45749501109094126)"><path d="M0.96 -0.57 C90.85 -0.75, 449.49 -0.76, 539.17 -0.82 M0.01 1.74 C90.29 1.68, 451.19 0.6, 541.42 0.28" stroke="#000000" stroke-width="1" fill="none"></path></g></g><g stroke-linecap="round"><g stroke-opacity="0.8" fill-opacity="0.8" transform="translate(114.59713303855006 107.38740045491068) rotate(0 0.31657309218371665 125.29161359366299)"><path d="M-0.57 -0.89 C-0.75 40.7, -0.76 208.53, -0.82 250.47 M1.33 1.26 C1.51 42.88, 1.44 209.74, 1.45 251.47" stroke="#000000" stroke-width="1" fill="none"></path></g></g><g stroke-opacity="0.8" fill-opacity="0.8" stroke-linecap="round" transform="translate(178.97180783575368 163.74006204315083) rotate(0 55.388114338988544 5.668395861850513)"><path d="M1.14 -1.62 L106.65 -0.85 L111.48 2.53 L111.57 6.93 L108.79 9.2 L106.53 11.49 L4.34 10.68 L1.85 11.89 L1.19 10.04 L-1.02 3.49 L0.85 -0.33" stroke="none" stroke-width="0" fill="#ced4da"></path><path d="M2.83 0 M2.83 0 C39.14 0.04, 76.96 2.23, 107.94 0 M2.83 0 C28.12 -0.38, 53.65 -0.74, 107.94 0 M107.94 0 C109.14 1.21, 112.38 1.26, 110.78 2.83 M107.94 0 C108.96 0.24, 109.59 2.54, 110.78 2.83 M110.78 2.83 C111.06 4.08, 110.99 6.19, 110.78 8.5 M110.78 2.83 C110.92 5.14, 110.91 6.93, 110.78 8.5 M110.78 8.5 C109.72 9.78, 108.17 11.76, 107.94 11.34 M110.78 8.5 C108.67 9.16, 111.93 10.91, 107.94 11.34 M107.94 11.34 C75.1 10.19, 37.49 11.42, 2.83 11.34 M107.94 11.34 C84.06 11.21, 61.27 9.83, 2.83 11.34 M2.83 11.34 C2.36 10.8, 1.77 12, 0 8.5 M2.83 11.34 C-1 10.83, -1.21 11.91, 0 8.5 M0 8.5 C0.4 5.84, -0.58 4.69, 0 2.83 M0 8.5 C0.13 6.91, -0.28 5.46, 0 2.83 M0 2.83 C-0.49 1.64, 1.12 -0.25, 2.83 0 M0 2.83 C0.78 -1, 0.33 0.79, 2.83 0" stroke="transparent" stroke-width="1" fill="none"></path></g><g stroke-opacity="0.8" fill-opacity="0.8" stroke-linecap="round" transform="translate(176.98140289930598 205.57183620422074) rotate(0 44.85664832740122 3.3021302081178874)"><path d="M0.03 -1.3 L87.22 0.88 L90.24 1.21 L88.14 3.67 L86.63 5.19 L1.8 8.11 L-0.66 6.09 L1.67 1.6 L3.19 -1.2" stroke="none" stroke-width="0" fill="#ced4da"></path><path d="M1.65 0 M1.65 0 C36.95 -0.44, 68.35 -1.41, 88.06 0 M1.65 0 C23.76 -1.05, 47.38 -0.66, 88.06 0 M88.06 0 C89.11 0.34, 88.94 -0.14, 89.71 1.65 M88.06 0 C90.56 1.84, 90.07 -0.32, 89.71 1.65 M89.71 1.65 C89.64 2.47, 89.65 3.89, 89.71 4.95 M89.71 1.65 C89.85 2.35, 89.63 3.31, 89.71 4.95 M89.71 4.95 C91.12 7.22, 88.3 5.55, 88.06 6.6 M89.71 4.95 C89.02 4.14, 89.65 4.5, 88.06 6.6 M88.06 6.6 C67.35 5.24, 44.67 8.32, 1.65 6.6 M88.06 6.6 C64.6 7.02, 41.97 6.67, 1.65 6.6 M1.65 6.6 C1.67 8.24, -1.65 7.47, 0 4.95 M1.65 6.6 C-0.07 8.64, 1.85 4.11, 0 4.95 M0 4.95 C0.25 4.3, 0.11 3.38, 0 1.65 M0 4.95 C0 4.43, 0 3.73, 0 1.65 M0 1.65 C0.13 -1.05, 1.74 -0.49, 1.65 0 M0 1.65 C0.79 0.75, 0.27 0.78, 1.65 0" stroke="transparent" stroke-width="1" fill="none"></path></g><g stroke-opacity="0.8" fill-opacity="0.8" stroke-linecap="round" transform="translate(140.498983036121 191.95523072216747) rotate(0 13.481038259118577 13.481038259118577)"><path d="M10.23 -0.12 C12.62 -0.82, 16.23 0.95, 18.74 2.17 C21.25 3.4, 23.96 4.88, 25.3 7.22 C26.64 9.55, 27.4 13.4, 26.76 16.16 C26.12 18.93, 23.9 21.95, 21.47 23.83 C19.05 25.72, 15.01 27.74, 12.23 27.48 C9.46 27.21, 6.72 24.41, 4.81 22.24 C2.9 20.07, 1.02 17.06, 0.77 14.45 C0.51 11.85, 1.8 9, 3.29 6.61 C4.77 4.22, 8.44 1.02, 9.67 0.11 C10.89 -0.8, 10.32 0.74, 10.63 1.14 M14.02 1.16 C16.53 1.85, 21.19 3.68, 23.31 5.82 C25.42 7.97, 26.57 11.56, 26.71 14.03 C26.85 16.5, 25.75 18.6, 24.15 20.65 C22.55 22.7, 19.85 25.51, 17.09 26.32 C14.33 27.12, 10.32 26.7, 7.6 25.47 C4.88 24.25, 2.13 21.73, 0.77 18.96 C-0.6 16.19, -1.61 11.59, -0.58 8.84 C0.45 6.08, 4.36 4, 6.93 2.43 C9.49 0.85, 13.46 -0.31, 14.82 -0.61 C16.17 -0.91, 14.9 0.04, 15.05 0.61" stroke="none" stroke-width="0" fill="#ced4da"></path><path d="M7.61 1.11 C10.31 -0.04, 15.31 -0.67, 18.28 0.29 C21.25 1.25, 23.89 4.24, 25.42 6.86 C26.94 9.48, 28.01 13.08, 27.44 16 C26.87 18.92, 24.39 22.56, 22 24.36 C19.6 26.16, 15.77 26.86, 13.09 26.78 C10.4 26.7, 8.14 25.75, 5.88 23.89 C3.63 22.03, 0.36 18.53, -0.43 15.63 C-1.22 12.73, -0.9 9.13, 1.15 6.47 C3.19 3.8, 9.75 0.6, 11.82 -0.38 C13.89 -1.35, 13.64 0.3, 13.56 0.61 M15.54 1.25 C18.42 1.31, 21.31 1.65, 23.23 3.36 C25.15 5.07, 26.67 8.58, 27.06 11.5 C27.46 14.43, 27.42 18.46, 25.58 20.93 C23.75 23.39, 18.88 25.67, 16.06 26.3 C13.24 26.94, 11.01 25.88, 8.66 24.76 C6.3 23.64, 3.13 22.19, 1.94 19.61 C0.75 17.02, 1.04 11.96, 1.53 9.25 C2.02 6.55, 2.51 4.76, 4.87 3.37 C7.23 1.98, 14.17 1.56, 15.69 0.92 C17.2 0.28, 14.23 -0.34, 13.96 -0.47" stroke="transparent" stroke-width="1" fill="none"></path></g><g stroke-opacity="0.8" fill-opacity="0.8" stroke-linecap="round" transform="translate(138.83204602233673 152.71341628489245) rotate(0 13.481038259118577 13.481038259118577)"><path d="M18.81 0.99 C21.54 1.93, 25.56 4.9, 26.74 7.64 C27.93 10.39, 27.01 14.58, 25.93 17.45 C24.85 20.33, 22.68 23.33, 20.26 24.87 C17.84 26.42, 14.06 26.95, 11.4 26.75 C8.74 26.54, 6.36 25.59, 4.33 23.65 C2.3 21.71, -0.46 17.98, -0.79 15.11 C-1.13 12.24, 0.35 9.02, 2.32 6.43 C4.29 3.83, 8.11 0.41, 11.04 -0.45 C13.97 -1.32, 18.2 0.64, 19.92 1.23 C21.64 1.83, 21.3 2.79, 21.36 3.12 M19.66 0.78 C22.73 1.87, 25.42 4.4, 26.74 7.02 C28.06 9.64, 28.62 13.49, 27.58 16.5 C26.54 19.51, 22.99 23.24, 20.48 25.07 C17.97 26.9, 15.19 27.77, 12.52 27.47 C9.86 27.16, 6.48 25.48, 4.5 23.23 C2.51 20.98, 1.09 16.72, 0.62 13.97 C0.16 11.22, 0.18 9.08, 1.71 6.75 C3.25 4.42, 7.16 1.01, 9.85 0 C12.55 -1.01, 16.41 0.38, 17.89 0.68 C19.37 0.97, 18.48 1.5, 18.74 1.77" stroke="none" stroke-width="0" fill="#ced4da"></path><path d="M9.31 1.44 C11.92 0.62, 15.34 0.48, 18.12 1.52 C20.9 2.56, 24.42 5.32, 25.97 7.67 C27.53 10.02, 27.98 13.04, 27.46 15.6 C26.93 18.17, 25.22 21.07, 22.8 23.06 C20.37 25.05, 16.02 27.6, 12.93 27.56 C9.84 27.52, 6.49 24.89, 4.23 22.81 C1.97 20.73, -0.13 17.68, -0.63 15.07 C-1.14 12.46, -0.47 9.64, 1.2 7.13 C2.88 4.63, 7.77 1.13, 9.44 0.02 C11.11 -1.09, 11.07 0.17, 11.23 0.49 M12.09 0.49 C14.74 -0.34, 17.23 0.3, 19.43 1.83 C21.63 3.36, 24.19 7.16, 25.28 9.67 C26.37 12.18, 26.81 14.21, 25.97 16.91 C25.13 19.61, 22.84 24.12, 20.25 25.87 C17.66 27.63, 13.2 27.87, 10.44 27.46 C7.69 27.05, 5.59 25.85, 3.72 23.42 C1.86 20.99, -0.79 15.77, -0.76 12.88 C-0.73 9.99, 1.82 8.29, 3.9 6.07 C5.99 3.86, 10.72 0.61, 11.76 -0.4 C12.8 -1.4, 10.46 -0.32, 10.15 0.06" stroke="transparent" stroke-width="1" fill="none"></path></g><g stroke-opacity="0.8" fill-opacity="0.8" transform="translate(49.519951350271185 112.55992845871879) rotate(0 26 9)"><text x="26" y="14" font-family="Helvetica, Segoe UI Emoji" font-size="16px" fill="transparent" text-anchor="middle" style="white-space: pre;" direction="ltr">History</text></g><g stroke-opacity="0.8" fill-opacity="0.8" transform="translate(19.751307851499405 120.64910675467036) rotate(0 21 6)"><text x="0" y="10" font-family="Helvetica, Segoe UI Emoji" font-size="10.083297275551145px" fill="#000000" text-anchor="start" style="white-space: pre;" direction="ltr">Products</text></g><g stroke-opacity="0.8" fill-opacity="0.8" transform="translate(19.229866560580376 147.449127515265) rotate(0 25.5 6)"><text x="0" y="10" font-family="Helvetica, Segoe UI Emoji" font-size="10.083297275551145px" fill="#000000" text-anchor="start" style="white-space: pre;" direction="ltr">Customers</text></g><g stroke-opacity="0.8" fill-opacity="0.8" transform="translate(20.635016676077612 170.2805992559115) rotate(0 19 6)"><text x="0" y="10" font-family="Helvetica, Segoe UI Emoji" font-size="10.083297275551145px" fill="#000000" text-anchor="start" style="white-space: pre;" direction="ltr">Settings</text></g><g stroke-linecap="round"><g stroke-opacity="0.8" fill-opacity="0.8" transform="translate(18.894054301291362 138.77736446531708) rotate(0 37.19621645016559 -0.06499991643067915)"><path d="M0.09 0.9 C12.85 1.15, 62.92 0.69, 75.71 0.66 M-1.32 0.33 C11.33 0.31, 61.59 -0.84, 74.56 -1.11" stroke="#364fc7" stroke-width="1" fill="none"></path></g></g><g stroke-opacity="0.8" fill-opacity="0.8" transform="translate(24.006883390530675 74.46219051150183) rotate(0 46 9)"><text x="0" y="14" font-family="Helvetica, Segoe UI Emoji" font-size="16px" fill="#495057" text-anchor="start" style="white-space: pre;" direction="ltr">MyCompany</text></g><g stroke-opacity="0.8" fill-opacity="0.8" stroke-linecap="round" transform="translate(513.6010993451537 69.2738924714904) rotate(0 13.481038259118577 13.481038259118577)"><path d="M10.3 -0.22 C12.85 -0.86, 16.43 0.66, 19.14 1.87 C21.85 3.08, 25.22 4.57, 26.56 7.06 C27.9 9.55, 27.94 13.75, 27.18 16.81 C26.42 19.86, 24.65 23.74, 22.01 25.39 C19.37 27.03, 14.46 26.98, 11.35 26.68 C8.24 26.38, 5.11 25.48, 3.35 23.6 C1.58 21.71, 0.84 18.22, 0.75 15.36 C0.65 12.5, 1.11 9.15, 2.79 6.45 C4.48 3.75, 8.94 0.21, 10.85 -0.84 C12.77 -1.9, 13.95 -0.25, 14.29 0.11 M18.52 0.29 C21.25 1.19, 24.07 3.86, 25.42 6.45 C26.78 9.04, 27.34 13.07, 26.65 15.84 C25.95 18.62, 23.28 21.16, 21.25 23.09 C19.22 25.01, 17.27 27.33, 14.49 27.37 C11.71 27.42, 7 25.18, 4.57 23.36 C2.15 21.55, 0.37 18.98, -0.05 16.5 C-0.47 14.02, 0.64 11.04, 2.06 8.48 C3.47 5.91, 5.67 2.29, 8.44 1.11 C11.21 -0.07, 17.13 1.19, 18.67 1.39 C20.21 1.6, 18.02 2.47, 17.67 2.34" stroke="none" stroke-width="0" fill="#ced4da"></path><path d="M17.06 1.61 C19.46 2.14, 22.2 3.94, 23.93 6.18 C25.66 8.42, 27.8 12.32, 27.43 15.08 C27.07 17.83, 24.05 20.88, 21.74 22.73 C19.43 24.58, 16.21 26.03, 13.57 26.16 C10.92 26.29, 8.18 25.1, 5.89 23.51 C3.61 21.91, 0.59 19.34, -0.14 16.61 C-0.86 13.87, 0.09 9.78, 1.55 7.12 C3.01 4.45, 5.63 1.41, 8.61 0.59 C11.6 -0.23, 17.16 1.74, 19.45 2.17 C21.75 2.61, 22.49 3.08, 22.38 3.2 M9.1 0.26 C11.68 -0.73, 17.19 -1, 20.07 0.33 C22.95 1.66, 25.13 5.58, 26.38 8.23 C27.63 10.88, 28.58 13.38, 27.57 16.25 C26.55 19.12, 22.69 23.54, 20.31 25.46 C17.94 27.38, 16.16 28.32, 13.32 27.78 C10.48 27.23, 5.55 24.59, 3.27 22.19 C0.98 19.79, -0.33 16.33, -0.41 13.36 C-0.49 10.38, 1.18 6.26, 2.78 4.34 C4.39 2.41, 8.06 2.34, 9.24 1.81 C10.41 1.28, 9.79 1.27, 9.83 1.16" stroke="transparent" stroke-width="1" fill="none"></path></g><g stroke-opacity="0.8" fill-opacity="0.8" stroke-linecap="round" transform="translate(475.3013840879448 108.60842007980318) rotate(0 34.53979023847069 7.279329132252315)"><path d="M5.14 -0.66 L68.17 1.49 L70.04 3.59 L67.66 14.4 L63.46 14.22 L3.25 13.74 L-1.27 10.96 L-0.75 2.04 L2.35 -0.27 L2.78 0.67" stroke="none" stroke-width="0" fill="#eee"></path><path d="M3.64 0 M3.64 0 C21.18 -0.79, 41.48 1.5, 65.44 0 M3.64 0 C22.63 0.63, 42.48 -0.69, 65.44 0 M65.44 0 C67.61 1.13, 67.81 2.1, 69.08 3.64 M65.44 0 C68.48 1.65, 67.91 -0.1, 69.08 3.64 M69.08 3.64 C68.82 5.88, 68.91 8.29, 69.08 10.92 M69.08 3.64 C69.34 5.91, 69.12 8.1, 69.08 10.92 M69.08 10.92 C68.32 15.22, 67.13 13.54, 65.44 14.56 M69.08 10.92 C69.63 11.64, 68.34 13.06, 65.44 14.56 M65.44 14.56 C46.12 16.48, 29.56 16.84, 3.64 14.56 M65.44 14.56 C41.41 15.08, 19.14 15.24, 3.64 14.56 M3.64 14.56 C1.8 16.13, -1.98 11.46, 0 10.92 M3.64 14.56 C2.78 14.18, 1.99 12.97, 0 10.92 M0 10.92 C0.43 8.1, 0.25 5.7, 0 3.64 M0 10.92 C-0.12 8.95, 0.08 6.58, 0 3.64 M0 3.64 C-1 0.75, 1.48 0.65, 3.64 0 M0 3.64 C2.01 1.26, 1.4 1.59, 3.64 0" stroke="#495057" stroke-width="1" fill="none"></path></g><g stroke-opacity="0.8" fill-opacity="0.8" transform="translate(490.34585523525493 112.69567932077553) rotate(0 24 4.5)"><text x="0" y="7" font-family="Helvetica, Segoe UI Emoji" font-size="7.99552649664057px" fill="#495057" text-anchor="start" style="white-space: pre;" direction="ltr">New Product</text></g><g stroke-opacity="0.8" fill-opacity="0.8" transform="translate(120.73279589935555 108.42862709377368) rotate(0 27 7.5)"><text x="0" y="12" font-family="Helvetica, Segoe UI Emoji" font-size="13.064647517905877px" fill="#000000" text-anchor="start" style="white-space: pre;" direction="ltr">Products</text></g><g stroke-linecap="round"><g stroke-opacity="0.8" fill-opacity="0.8" transform="translate(113.90044637496158 128.9209907397999) rotate(0 216.67148505637533 -0.1756620175383432)"><path d="M-1.19 -0.2 C71.35 -0.45, 362.18 -0.23, 434.53 -0.35 M0.39 -1.35 C72.9 -0.91, 361.47 0.79, 433.96 1" stroke="#000000" stroke-width="1" fill="none"></path></g></g><g stroke-opacity="0.8" fill-opacity="0.8" stroke-linecap="round" transform="translate(178.46484218952628 236.84724718419966) rotate(0 137.1135086346335 6.344669340842302)"><path d="M2.15 -1.26 L269.1 0.68 L274.03 3.78 L275.3 10.78 L273.48 10.39 L272.8 13.31 L1.81 13.56 L-0.8 12.17 L1.49 8.56 L0.85 -0.18 L1.72 -1.81" stroke="none" stroke-width="0" fill="#ced4da"></path><path d="M3.17 0 M3.17 0 C74.46 -1.83, 144.86 -1.97, 271.05 0 M3.17 0 C91.33 0.13, 180.47 -0.16, 271.05 0 M271.05 0 C272.47 -0.76, 274.51 2.06, 274.23 3.17 M271.05 0 C273.35 -0.01, 275.94 2.1, 274.23 3.17 M274.23 3.17 C274.09 5.13, 274.52 6.51, 274.23 9.52 M274.23 3.17 C274.27 5.01, 274.52 7.5, 274.23 9.52 M274.23 9.52 C273.81 11.83, 275.11 12.33, 271.05 12.69 M274.23 9.52 C272.18 9.68, 273.13 13.38, 271.05 12.69 M271.05 12.69 C184.64 13.14, 96.14 12.1, 3.17 12.69 M271.05 12.69 C164.36 13.83, 57.6 13.7, 3.17 12.69 M3.17 12.69 C1.77 14.09, -1.27 10.4, 0 9.52 M3.17 12.69 C0.63 12.33, -1.22 9.54, 0 9.52 M0 9.52 C0.09 7.67, -0.52 4.78, 0 3.17 M0 9.52 C0.15 7.77, -0.26 5.8, 0 3.17 M0 3.17 C1.98 1.72, 2.4 -1.76, 3.17 0 M0 3.17 C-2.16 2.58, 2.13 1.72, 3.17 0" stroke="transparent" stroke-width="1" fill="none"></path></g><g stroke-opacity="0.8" fill-opacity="0.8" stroke-linecap="round" transform="translate(141.9824223263413 229.31571996759521) rotate(0 13.481038259118577 13.481038259118577)"><path d="M12.24 0.35 C15.14 -0.09, 19 -0.23, 21.42 1.43 C23.84 3.09, 26.07 7.47, 26.77 10.33 C27.47 13.18, 27.02 15.85, 25.63 18.58 C24.25 21.3, 21 25.3, 18.48 26.67 C15.95 28.04, 13.07 27.58, 10.47 26.79 C7.87 26.01, 4.49 24.27, 2.88 21.95 C1.26 19.64, 0.55 15.78, 0.78 12.9 C1.02 10.02, 1.9 6.91, 4.27 4.68 C6.64 2.46, 12.61 0.13, 15 -0.44 C17.39 -1.02, 18.6 1.04, 18.58 1.22 M17.69 1.67 C20.24 2.32, 22.04 3.84, 23.56 5.88 C25.08 7.92, 26.92 10.92, 26.81 13.91 C26.69 16.91, 24.88 21.93, 22.86 23.85 C20.85 25.78, 17.6 25.17, 14.71 25.47 C11.82 25.77, 7.83 27, 5.51 25.65 C3.2 24.31, 1.7 20.7, 0.82 17.4 C-0.07 14.1, -1.21 8.45, 0.21 5.84 C1.63 3.23, 6.25 2.52, 9.32 1.72 C12.4 0.93, 17.42 1.26, 18.67 1.09 C19.91 0.92, 17.21 0.54, 16.8 0.71" stroke="none" stroke-width="0" fill="#ced4da"></path><path d="M19.95 0.89 C22.5 2, 25.96 5.98, 26.9 8.86 C27.84 11.75, 26.78 15.5, 25.58 18.21 C24.38 20.92, 21.94 23.77, 19.72 25.12 C17.49 26.47, 14.89 26.95, 12.22 26.33 C9.55 25.72, 5.86 23.66, 3.7 21.42 C1.54 19.18, -0.54 15.47, -0.72 12.91 C-0.91 10.35, 0.49 8.1, 2.58 6.06 C4.66 4.02, 8.58 1.17, 11.79 0.66 C15 0.16, 19.96 2.35, 21.85 3.02 C23.74 3.69, 23.39 4.55, 23.14 4.7 M12.17 -0.47 C14.72 -1.07, 18.08 0.86, 20.6 2.62 C23.11 4.37, 26.38 7.12, 27.24 10.06 C28.09 13, 26.94 17.71, 25.72 20.25 C24.49 22.78, 22.3 24.04, 19.91 25.28 C17.52 26.51, 14.36 28.21, 11.38 27.63 C8.39 27.05, 3.81 24.38, 2.01 21.78 C0.22 19.19, 0.23 15.08, 0.61 12.06 C0.99 9.03, 2.3 5.6, 4.28 3.65 C6.27 1.69, 11.36 0.65, 12.52 0.33 C13.67 0.02, 11.06 1.63, 11.2 1.76" stroke="transparent" stroke-width="1" fill="none"></path></g><g stroke-opacity="0.8" fill-opacity="0.8" stroke-linecap="round" transform="translate(181.19589283772348 276.25958369081854) rotate(0 137.1135086346335 6.344669340842302)"><path d="M1.74 -1.85 L271.32 -1.34 L272.2 2.52 L272.49 10.6 L272.23 12.54 L272.77 12.9 L1.29 14.63 L0.47 12.87 L0.09 8.44 L-1.3 1.29 L4.13 -1.93" stroke="none" stroke-width="0" fill="#ced4da"></path><path d="M3.17 0 M3.17 0 C81.15 -0.34, 157.8 2.16, 271.05 0 M3.17 0 C57.73 -1.99, 110.42 -1.98, 271.05 0 M271.05 0 C273.06 -1.77, 275.58 2.24, 274.23 3.17 M271.05 0 C273.87 1.73, 272.36 2.97, 274.23 3.17 M274.23 3.17 C273.88 4.59, 274.65 6.85, 274.23 9.52 M274.23 3.17 C273.96 5.06, 274.13 6.52, 274.23 9.52 M274.23 9.52 C272.73 11.41, 275.04 13.54, 271.05 12.69 M274.23 9.52 C272.08 13.9, 273.91 14.8, 271.05 12.69 M271.05 12.69 C207.82 12.75, 142.9 11.05, 3.17 12.69 M271.05 12.69 C203.25 11.11, 136.6 11.24, 3.17 12.69 M3.17 12.69 C-0.06 11.97, -1.97 11.29, 0 9.52 M3.17 12.69 C0.83 13.16, -2.16 11.08, 0 9.52 M0 9.52 C-0.63 7.66, -0.13 5.14, 0 3.17 M0 9.52 C-0.11 7.37, 0.19 5.22, 0 3.17 M0 3.17 C-0.18 -0.94, 1.15 -0.51, 3.17 0 M0 3.17 C0.75 -0.06, 3.27 -1.21, 3.17 0" stroke="transparent" stroke-width="1" fill="none"></path></g><g stroke-opacity="0.8" fill-opacity="0.8" stroke-linecap="round" transform="translate(144.7134729745385 268.7280564742141) rotate(0 13.481038259118577 13.481038259118577)"><path d="M16.66 1.23 C19.43 1.37, 21.87 2.46, 23.5 4.6 C25.14 6.74, 26.4 11.24, 26.5 14.07 C26.6 16.9, 26.04 19.54, 24.1 21.58 C22.16 23.63, 17.82 25.87, 14.86 26.35 C11.9 26.84, 8.8 26.09, 6.34 24.48 C3.88 22.86, 0.92 19.48, 0.09 16.67 C-0.74 13.86, 0.28 10.2, 1.37 7.63 C2.46 5.05, 3.83 2.28, 6.64 1.19 C9.46 0.11, 15.76 0.76, 18.24 1.11 C20.73 1.46, 21.64 3.11, 21.55 3.3 M14.43 0.83 C16.92 1.03, 21.41 2.17, 23.62 4.5 C25.82 6.83, 27.49 11.94, 27.66 14.84 C27.83 17.73, 26.58 19.69, 24.65 21.87 C22.71 24.05, 18.96 27.38, 16.06 27.91 C13.16 28.44, 10.03 26.66, 7.24 25.03 C4.45 23.41, 0.46 20.79, -0.68 18.18 C-1.81 15.57, -0.69 11.86, 0.42 9.38 C1.53 6.89, 3.56 4.55, 5.99 3.26 C8.42 1.97, 13.19 1.91, 15.01 1.66 C16.83 1.41, 16.99 1.69, 16.91 1.77" stroke="none" stroke-width="0" fill="#ced4da"></path><path d="M15.35 0.55 C18.36 0.81, 22.97 2.68, 24.75 5.02 C26.53 7.36, 26.22 11.63, 26.02 14.58 C25.82 17.53, 25.28 20.79, 23.57 22.73 C21.85 24.67, 18.69 25.89, 15.74 26.24 C12.79 26.59, 8.3 26.38, 5.88 24.84 C3.47 23.3, 2.1 19.59, 1.25 17.01 C0.39 14.42, -0.1 11.87, 0.76 9.34 C1.63 6.81, 3.97 3.43, 6.46 1.81 C8.96 0.19, 13.86 -0.03, 15.75 -0.38 C17.64 -0.72, 17.66 -0.71, 17.8 -0.25 M17.53 0.82 C20.06 2.04, 22.27 5.35, 23.95 7.97 C25.63 10.59, 27.75 14.05, 27.6 16.52 C27.46 18.98, 25.27 21.06, 23.08 22.75 C20.9 24.43, 17.74 26.4, 14.49 26.62 C11.23 26.84, 6.06 26.05, 3.56 24.07 C1.06 22.1, -0.45 17.63, -0.54 14.77 C-0.63 11.91, 1.53 9.11, 3.04 6.92 C4.56 4.73, 6.19 2.87, 8.55 1.63 C10.91 0.39, 15.39 -0.34, 17.18 -0.52 C18.97 -0.71, 19.15 0.27, 19.27 0.52" stroke="transparent" stroke-width="1" fill="none"></path></g><g stroke-opacity="0.8" fill-opacity="0.8" stroke-linecap="round" transform="translate(182.33533781015285 313.6763842933324) rotate(0 137.1135086346335 6.344669340842302)"><path d="M3.81 -0.18 L269.06 0.1 L273.51 2.43 L273.25 11.44 L272.38 13.84 L272.59 14.43 L1.74 13.49 L-0.28 10.42 L-1.9 11.13 L2 3.33 L2.68 -1.98" stroke="none" stroke-width="0" fill="#ced4da"></path><path d="M3.17 0 M3.17 0 C82.95 -0.58, 163.38 -1.86, 271.05 0 M3.17 0 C65.48 -1.54, 129 -0.53, 271.05 0 M271.05 0 C274.28 1.76, 273.66 -0.56, 274.23 3.17 M271.05 0 C272.25 2.23, 272.41 2.49, 274.23 3.17 M274.23 3.17 C273.9 6.16, 273.65 7.52, 274.23 9.52 M274.23 3.17 C274.14 4.63, 274.03 6.34, 274.23 9.52 M274.23 9.52 C273.48 12.92, 274.88 14.33, 271.05 12.69 M274.23 9.52 C276.12 10.65, 271.59 12.33, 271.05 12.69 M271.05 12.69 C192.21 9.7, 109.93 11.67, 3.17 12.69 M271.05 12.69 C210.71 12.23, 151.1 11.52, 3.17 12.69 M3.17 12.69 C2.85 10.7, -0.14 11.9, 0 9.52 M3.17 12.69 C1.27 11.91, -1.13 11.71, 0 9.52 M0 9.52 C-0.26 7.64, -0.52 6.66, 0 3.17 M0 9.52 C-0.26 6.92, 0.12 4.67, 0 3.17 M0 3.17 C-1.07 -0.37, 0.12 1.28, 3.17 0 M0 3.17 C-1.47 2.43, 0.9 -2.13, 3.17 0" stroke="transparent" stroke-width="1" fill="none"></path></g><g stroke-opacity="0.8" fill-opacity="0.8" stroke-linecap="round" transform="translate(145.85291794696786 306.14485707672793) rotate(0 13.481038259118577 13.481038259118577)"><path d="M18.18 0.97 C20.62 2.01, 24.28 4.97, 25.53 7.68 C26.78 10.39, 26.46 14.62, 25.67 17.23 C24.89 19.84, 22.89 21.84, 20.82 23.33 C18.74 24.82, 16.04 26.25, 13.22 26.17 C10.4 26.08, 6.2 24.6, 3.89 22.83 C1.59 21.06, -0.26 18.41, -0.61 15.55 C-0.96 12.7, -0.07 8.35, 1.79 5.69 C3.65 3.02, 7.17 -0.05, 10.56 -0.44 C13.95 -0.84, 19.77 2.26, 22.12 3.33 C24.47 4.39, 24.87 5.79, 24.65 5.94 M10.99 -0.21 C13.65 -0.39, 16.58 1.89, 19.37 3.57 C22.15 5.25, 26.53 7.54, 27.69 9.86 C28.85 12.18, 27.75 14.78, 26.33 17.49 C24.91 20.2, 21.7 24.72, 19.16 26.11 C16.62 27.5, 14 26.7, 11.09 25.85 C8.18 24.99, 3.41 23.31, 1.72 21 C0.03 18.68, 0.52 14.74, 0.97 11.95 C1.42 9.16, 2.87 6.19, 4.43 4.28 C5.98 2.37, 8.99 1.1, 10.32 0.49 C11.65 -0.12, 12.33 0.43, 12.4 0.61" stroke="none" stroke-width="0" fill="#ced4da"></path><path d="M15.13 1.15 C18.08 1.41, 22.62 3.46, 24.47 5.56 C26.32 7.65, 26.43 11.1, 26.25 13.72 C26.06 16.34, 25.24 18.98, 23.37 21.28 C21.51 23.58, 17.63 26.75, 15.03 27.53 C12.44 28.32, 10.19 27.73, 7.79 26.01 C5.39 24.3, 1.8 20.06, 0.63 17.26 C-0.54 14.46, -0.31 11.85, 0.77 9.21 C1.84 6.56, 4.32 2.93, 7.1 1.38 C9.88 -0.17, 15.65 0.04, 17.47 -0.09 C19.29 -0.21, 17.97 0.23, 18.01 0.62 M8.16 2.39 C10.89 0.98, 15.2 -0.49, 17.66 -0.12 C20.12 0.25, 21.14 2.47, 22.93 4.63 C24.72 6.79, 28.16 9.64, 28.4 12.82 C28.65 16.01, 26.75 21.49, 24.39 23.74 C22.03 25.99, 17.36 25.91, 14.23 26.33 C11.1 26.75, 8.09 27.88, 5.62 26.24 C3.14 24.6, 0.22 19.5, -0.62 16.47 C-1.45 13.43, -0.82 10.6, 0.62 8.06 C2.06 5.51, 7.12 2.4, 8.01 1.21 C8.9 0.02, 6.25 0.74, 5.97 0.9" stroke="transparent" stroke-width="1" fill="none"></path></g><g transform="translate(185.23243531164826 157.6493214669572) rotate(0 52 10)"><text x="0" y="14" font-family="Virgil, Segoe UI Emoji" font-size="16px" fill="#000000" text-anchor="start" style="white-space: pre;" direction="ltr">Widget 4000</text></g><g transform="translate(182.52197118242384 196.81908466279492) rotate(0 42.5 10)"><text x="0" y="14" font-family="Virgil, Segoe UI Emoji" font-size="16px" fill="#000000" text-anchor="start" style="white-space: pre;" direction="ltr">Floozal v2</text></g><g stroke-opacity="0.5" fill-opacity="0.5" stroke-linecap="round" transform="translate(273.1763910686923 169.91296087644514) rotate(0 13.481038259118577 13.481038259118577)"><path d="M18.22 0.55 C21.12 1.22, 24.27 2.84, 25.64 5.39 C27 7.94, 26.93 12.74, 26.39 15.84 C25.85 18.94, 24.42 22.22, 22.39 24 C20.35 25.79, 16.93 26.68, 14.19 26.56 C11.46 26.44, 8.27 25.12, 5.95 23.31 C3.62 21.49, 0.9 18.41, 0.24 15.65 C-0.42 12.89, 0.68 9.1, 1.99 6.74 C3.3 4.38, 5.1 2.22, 8.11 1.48 C11.12 0.74, 17.61 1.97, 20.06 2.31 C22.5 2.64, 22.81 3.24, 22.79 3.49 M18.61 -0.29 C21.35 0.81, 23.38 4.93, 24.58 7.59 C25.78 10.26, 26.02 13.28, 25.81 15.71 C25.61 18.13, 25.24 20.11, 23.37 22.15 C21.49 24.2, 17.35 27.73, 14.56 27.96 C11.78 28.2, 8.91 25.27, 6.65 23.56 C4.4 21.85, 1.66 20.53, 1.04 17.69 C0.42 14.85, 1.55 9.45, 2.93 6.51 C4.31 3.57, 6.83 0.82, 9.31 0.05 C11.78 -0.73, 16.21 1.78, 17.79 1.86 C19.37 1.94, 18.69 0.73, 18.78 0.52" stroke="none" stroke-width="0" fill="#99bcff"></path><path d="M18.4 0.91 C20.95 1.62, 24.32 3.94, 25.64 6.43 C26.96 8.92, 27.12 12.82, 26.29 15.87 C25.47 18.91, 23.09 22.81, 20.69 24.68 C18.3 26.55, 14.62 27.45, 11.93 27.09 C9.23 26.73, 6.62 24.39, 4.52 22.52 C2.41 20.64, -0.18 18.7, -0.72 15.84 C-1.27 12.99, -0.47 7.89, 1.23 5.38 C2.94 2.87, 6.21 1.26, 9.49 0.78 C12.77 0.3, 18.97 2.26, 20.91 2.5 C22.86 2.73, 21.25 2.02, 21.17 2.22 M14.75 0.56 C17.54 0.47, 19.62 0.32, 21.85 1.98 C24.08 3.64, 27.73 7.3, 28.14 10.52 C28.54 13.75, 25.96 18.78, 24.27 21.33 C22.58 23.89, 20.48 25.17, 17.99 25.86 C15.49 26.55, 11.96 26.63, 9.29 25.48 C6.61 24.33, 3.31 21.37, 1.93 18.96 C0.55 16.56, 0.25 13.66, 1.01 11.06 C1.76 8.45, 4.56 5.03, 6.47 3.33 C8.37 1.63, 11.39 1.49, 12.45 0.85 C13.51 0.22, 12.46 -0.76, 12.81 -0.48" stroke="transparent" stroke-width="1" fill="none"></path></g><g stroke-linecap="round"><g transform="translate(550.7244101237793 44.00900920409185) rotate(0 110.95932472970617 37.01826761381744)"><path d="M0 0 C27.08 -4.93, 125.49 -47.61, 162.47 -29.6 C199.46 -11.59, 212.01 85.1, 221.92 108.05 M0 0 C27.08 -4.93, 125.49 -47.61, 162.47 -29.6 C199.46 -11.59, 212.01 85.1, 221.92 108.05" stroke="#000000" stroke-width="2" fill="none"></path></g><g transform="translate(550.7244101237793 44.00900920409185) rotate(0 110.95932472970617 37.01826761381744)"><path d="M204.43 83.67 C208.24 88.99, 212.06 94.3, 221.92 108.05 M204.43 83.67 C208.91 89.91, 213.39 96.16, 221.92 108.05" stroke="#000000" stroke-width="2" fill="none"></path></g><g transform="translate(550.7244101237793 44.00900920409185) rotate(0 110.95932472970617 37.01826761381744)"><path d="M224.19 78.13 C223.69 84.66, 223.2 91.18, 221.92 108.05 M224.19 78.13 C223.61 85.79, 223.03 93.45, 221.92 108.05" stroke="#000000" stroke-width="2" fill="none"></path></g></g><g stroke-linecap="round"><g stroke-opacity="0.8" fill-opacity="0.8" transform="translate(706.4861833366967 274.5834631392281) rotate(0 6.359780755583415 -0.8284175459339167)"><path d="M-0.37 -0.05 C1.97 0.14, 10.99 0.22, 13.09 0.22 M1.63 -1.12 C3.92 -1.23, 10.67 -2.18, 12.25 -1.78" stroke="#000000" stroke-width="1" fill="none"></path></g></g><g stroke-linecap="round"><g transform="translate(281.3516990764783 186.24602227487412) rotate(0 6.42084609212543 -6.230153837102989)"><path d="M0 0 C0.35 -2.05, -0.02 -11.21, 2.12 -12.32 C4.26 -13.43, 11.06 -7.62, 12.84 -6.68 M0 0 C0.35 -2.05, -0.02 -11.21, 2.12 -12.32 C4.26 -13.43, 11.06 -7.62, 12.84 -6.68" stroke="#000000" stroke-width="2" fill="none"></path></g></g><g stroke-linecap="round"><g transform="translate(293.89352848833823 179.77355722980792) rotate(0 -3.3828145873517315 0.6917333731053077)"><path d="M0 0 C-1.13 0.23, -5.64 1.15, -6.77 1.38 M0 0 C-1.13 0.23, -5.64 1.15, -6.77 1.38" stroke="#000000" stroke-width="2" fill="none"></path></g></g><g stroke-linecap="round"><g transform="translate(281.8249384846795 186.54312678259885) rotate(0 2.188288970397025 -2.6514804144790105)"><path d="M0 0 C0.73 -0.88, 3.65 -4.42, 4.38 -5.3 M0 0 C0.73 -0.88, 3.65 -4.42, 4.38 -5.3" stroke="#000000" stroke-width="2" fill="none"></path></g></g><g stroke-linecap="round" transform="translate(286.36547365306524 178.94699776508787) rotate(333.5081819939648 2.5355957995434437 6.4719391494018055)"><path d="M0 0 L5.07 0 L5.07 12.94 L0 12.94" stroke="none" stroke-width="0" fill="black"></path><path d="M0 0 C2.01 0, 4.02 0, 5.07 0 M0 0 C1.91 0, 3.82 0, 5.07 0 M5.07 0 C5.07 3.41, 5.07 6.81, 5.07 12.94 M5.07 0 C5.07 4.84, 5.07 9.68, 5.07 12.94 M5.07 12.94 C3.82 12.94, 2.57 12.94, 0 12.94 M5.07 12.94 C3.84 12.94, 2.6 12.94, 0 12.94 M0 12.94 C0 9.22, 0 5.5, 0 0 M0 12.94 C0 8.6, 0 4.25, 0 0" stroke="#000000" stroke-width="2" fill="none"></path></g><g stroke-linecap="round" transform="translate(285.6916315010685 172.6662972750055) rotate(119.27975548127826 1.2981575606322622 4.39490069889689)"><path d="M0 0 L2.6 0 L2.6 8.79 L0 8.79" stroke="none" stroke-width="0" fill="black"></path><path d="M0 0 C0.73 0, 1.47 0, 2.6 0 M0 0 C0.92 0, 1.85 0, 2.6 0 M2.6 0 C2.6 2.04, 2.6 4.08, 2.6 8.79 M2.6 0 C2.6 2.35, 2.6 4.7, 2.6 8.79 M2.6 8.79 C1.85 8.79, 1.1 8.79, 0 8.79 M2.6 8.79 C1.64 8.79, 0.68 8.79, 0 8.79 M0 8.79 C0 5.51, 0 2.23, 0 0 M0 8.79 C0 6.72, 0 4.66, 0 0" stroke="#000000" stroke-width="2" fill="none"></path></g><g stroke-linecap="round" transform="translate(282.81338232770486 174.68199768519844) rotate(0 1.2981575606322622 4.39490069889689)"><path d="M0 0 L2.6 0 L2.6 8.79 L0 8.79" stroke="none" stroke-width="0" fill="black"></path><path d="M0 0 C0.95 0, 1.9 0, 2.6 0 M0 0 C0.96 0, 1.91 0, 2.6 0 M2.6 0 C2.6 1.89, 2.6 3.79, 2.6 8.79 M2.6 0 C2.6 2.31, 2.6 4.62, 2.6 8.79 M2.6 8.79 C1.77 8.79, 0.95 8.79, 0 8.79 M2.6 8.79 C1.81 8.79, 1.03 8.79, 0 8.79 M0 8.79 C0 6.69, 0 4.6, 0 0 M0 8.79 C0 5.84, 0 2.9, 0 0" stroke="#000000" stroke-width="2" fill="none"></path></g></svg>